<svg xmlns="http://www.w3.org/2000/svg" width="14" height="19" viewBox="0 0 14 19">
  <path fill="#006FAD" d="M29,94 C26.0916667,94 23.75,96.3416667 23.75,99.25 L23.75,100.125 C22.7875,100.125 22,100.9125 22,101.875 L22,110.625 C22,111.5875 22.7875,112.375 23.75,112.375 L34.25,112.375 C35.2125,112.375 36,111.5875 36,110.625 L36,101.875 C36,100.9125 35.2125,100.125 34.25,100.125 L34.25,99.25 C34.25,96.3416667 31.9083338,94 29,94 Z M29,95.75 C30.9916663,95.75 32.5,97.2583333 32.5,99.25 L32.5,100.125 L25.5,100.125 L25.5,99.25 C25.5,97.2583333 27.0083333,95.75 29,95.75 Z M29,104.5 C29.9625,104.5 30.75,105.2875 30.75,106.25 C30.75,107.2125 29.9625,108 29,108 C28.0375,108 27.25,107.2125 27.25,106.25 C27.25,105.2875 28.0375,104.5 29,104.5 Z" transform="translate(-22 -94)"/>
</svg>
