<svg xmlns="http://www.w3.org/2000/svg" width="13" height="8" viewBox="0 0 13 8">
  <path fill="#0AA699" d="M11.3522575,11.6023675 L15.8097427,7.41229268 C15.93248,7.29719675 16,7.14331057 16,6.97922602 C16,6.81505041 15.93248,6.66125528 15.8097427,6.54597724 L15.4191533,6.17901789 C15.2966097,6.06355772 15.1327986,6 14.9582345,6 C14.7836705,6 14.6200531,6.06355772 14.4974127,6.17901789 L9.19006618,11.1676618 C9.0669414,11.2833041 8.99951823,11.4378276 9,11.6020943 C8.99951823,11.7670894 9.06684453,11.9214309 9.19006618,12.0371642 L14.4924722,17.0209821 C14.6151126,17.1364423 14.77873,17.2 14.9533909,17.2 C15.1279549,17.2 15.2915724,17.1364423 15.4143097,17.0209821 L15.8048022,16.6540228 C16.0588984,16.4151805 16.0588984,16.0263675 15.8048022,15.7876163 L11.3522575,11.6023675 Z" opacity=".609" transform="rotate(-90 5.5 10.6)"/>
</svg>
