<svg xmlns="http://www.w3.org/2000/svg" width="44" height="44" viewBox="0 0 44 44">
  <path fill="#FFF" d="M22,0 C9.8505,0 0,9.8505 0,22 C0,34.1495 9.8505,44 22,44 C34.1495,44 44,34.1495 44,22 C44,9.8505 34.1495,0 22,0 Z M22,5.5 C29.159625,5.5 35.206875,10.11175 37.49075,16.5 L6.50925,16.5 C8.793125,10.11175 14.840375,5.5 22,5.5 Z M22,24.75 C20.480625,24.75 19.25,23.519375 19.25,22 C19.25,20.480625 20.480625,19.25 22,19.25 C23.519375,19.25 24.75,20.480625 24.75,22 C24.75,23.519375 23.519375,24.75 22,24.75 Z M5.5,22 C13.014375,22 19.100125,29.24075 19.228,38.220875 C11.451,36.8885 5.5,30.14825 5.5,22 Z M24.772,38.220875 C24.899875,29.24075 30.985625,22 38.5,22 C38.5,30.14825 32.549,36.8885 24.772,38.220875 Z"/>
</svg>
