<svg xmlns="http://www.w3.org/2000/svg" width="39" height="44" viewBox="0 0 39 44">
  <g fill="#FFF">
    <path d="M18.7293333 20.5599167C18.7293333 21.1016667 19.1684167 21.538 19.7083333 21.538 20.24825 21.538 20.6873333 21.0989167 20.6873333 20.5599167 20.68825 19.4140833 21.09525 18.3003333 21.8340833 17.424 23.4776667 15.4751667 24.7096667 13.36225 25.48975 11.1439167 25.5951667 10.8441667 25.5493333 10.5123333 25.366 10.2529167 25.18175 9.9935 24.88475 9.8395 24.5666667 9.8395L14.8490833 9.8395C14.531 9.8395 14.2330833 9.9935 14.0488333 10.2529167 13.8655 10.5123333 13.8196667 10.8441667 13.9250833 11.1439167 14.707 13.36225 15.9371667 15.4751667 17.58075 17.424 18.3205 18.3003333 18.7284167 19.415 18.7293333 20.5599167zM20.6873333 24.4841667C20.6873333 23.9433333 20.24825 23.5060833 19.7083333 23.5060833 19.1684167 23.5060833 18.7293333 23.9451667 18.7293333 24.4841667 18.7284167 25.8976667 17.8841667 27.2955833 16.3524167 28.4295 13.07625 30.8485833 10.6241667 33.4766667 9.064 36.2395 8.89258333 36.5438333 8.89533333 36.9141667 9.07225 37.213 9.24641667 37.5145833 9.56908333 37.6988333 9.91741667 37.6988333L29.5010833 37.6988333C29.8485 37.6988333 30.17025 37.5145833 30.34625 37.213 30.5213333 36.9141667 30.5240833 36.5438333 30.3535833 36.2395 28.7943333 33.4766667 26.3413333 30.8485833 23.0660833 28.4295 21.5325 27.2955833 20.68825 25.8976667 20.6873333 24.4841667z"/>
    <path d="M36.8426667,39.16825 L36.2569167,39.16825 C35.5840833,31.548 31.12175,25.6978333 27.6530833,21.5425833 C31.1226667,17.38825 35.5831667,11.5371667 36.25875,3.91691667 L36.8445,3.91691667 C37.9261667,3.91691667 38.8025,3.03966667 38.8025,1.958 C38.8025,0.876333333 37.9261667,0 36.8445,0 L2.57308333,0 C1.49141667,0 0.615083333,0.87725 0.615083333,1.958 C0.615083333,3.03966667 1.49141667,3.91691667 2.57308333,3.91691667 L3.15883333,3.91691667 C3.83258333,11.5380833 8.29308333,17.3891667 11.7626667,21.5425833 C8.294,25.6969167 3.83258333,31.5470833 3.15791667,39.16825 L2.57308333,39.16825 C1.49141667,39.16825 0.615083333,40.0436667 0.615083333,41.1253333 C0.615083333,42.2079167 1.49141667,43.0851667 2.57308333,43.0851667 L5.0215,43.0851667 L34.3951667,43.0851667 L36.8445,43.0851667 C37.9261667,43.0851667 38.8025,42.2079167 38.8025,41.1253333 C38.8025,40.0436667 37.92525,39.16825 36.8426667,39.16825 Z M7.084,39.16825 C7.82008333,32.2831667 12.2961667,26.9811667 15.6410833,23.0193333 L15.8198333,22.8075833 C16.4358333,22.0788333 16.4358333,21.0118333 15.8198333,20.2821667 L15.642,20.0713333 C12.298,16.1085833 7.82008333,10.8065833 7.084,3.92058333 L32.3326667,3.92058333 C31.5965833,10.8065833 27.1186667,16.1085833 23.7746667,20.0713333 L23.59775,20.2821667 C22.98175,21.0109167 22.98175,22.0779167 23.59775,22.8075833 L23.7765,23.0193333 C27.1205,26.9811667 31.5965833,32.2831667 32.3326667,39.16825 L7.084,39.16825 Z"/>
  </g>
</svg>
