<svg xmlns="http://www.w3.org/2000/svg" width="23" height="23" viewBox="0 0 23 23">
  <path fill="#5E5E5E" d="M11.5,0 C5.15907692,0 0,5.15863462 0,11.5 C0,17.8413654 5.15907692,23 11.5,23 C17.8409231,23 23,17.8413654 23,11.5 C23,5.15863462 17.8409231,0 11.5,0 Z M17.0288462,12.3846154 L12.3846154,12.3846154 L12.3846154,17.25 C12.3846154,17.7383077 11.9883077,18.1346154 11.5,18.1346154 C11.0116923,18.1346154 10.6153846,17.7383077 10.6153846,17.25 L10.6153846,12.3846154 L5.97115385,12.3846154 C5.48284615,12.3846154 5.08653846,11.9883077 5.08653846,11.5 C5.08653846,11.0116923 5.48284615,10.6153846 5.97115385,10.6153846 L10.6153846,10.6153846 L10.6153846,6.19230769 C10.6153846,5.704 11.0116923,5.30769231 11.5,5.30769231 C11.9883077,5.30769231 12.3846154,5.704 12.3846154,6.19230769 L12.3846154,10.6153846 L17.0288462,10.6153846 C17.5171538,10.6153846 17.9134615,11.0116923 17.9134615,11.5 C17.9134615,11.9883077 17.5171538,12.3846154 17.0288462,12.3846154 Z"/>
</svg>
