<svg xmlns="http://www.w3.org/2000/svg" width="16" height="12" viewBox="0 0 16 12">
  <path fill="#727272" d="M0.571428571,7.48613572 L0.571428571,0.684371612 C0.571428571,0.306411657 0.878695538,0 1.25776903,0 L8.0755905,0 C8.4546378,0 8.76190476,0.306411657 8.76190476,0.684371612 L8.76190476,7.48616184 C8.76190476,7.6121485 8.6594999,7.71428571 8.53312461,7.71428571 L0.800208725,7.71428571 C0.673833429,7.71428571 0.571428571,7.6121485 0.571428571,7.48613572 Z M6.0952381,9.80952381 C6.0952381,10.5985007 5.45561731,11.2380952 4.66666667,11.2380952 C3.87771602,11.2380952 3.23809524,10.5985007 3.23809524,9.80952381 C3.23809524,9.02052059 3.87771602,8.38095238 4.66666667,8.38095238 C5.45561731,8.38095238 6.0952381,9.02052059 6.0952381,9.80952381 Z M5.33333333,9.76189162 C5.33333333,9.36741041 5.01354197,9.04761905 4.61906076,9.04761905 C4.22457956,9.04761905 3.9047619,9.36741041 3.9047619,9.76189162 C3.9047619,10.1563728 4.22457956,10.4761905 4.61906076,10.4761905 C5.01354197,10.4761905 5.33333333,10.1563728 5.33333333,9.76189162 Z M3.42857143,8.38095238 L0.229447215,8.38095238 C0.102729716,8.38095238 0,8.48260092 0,8.60798478 L0,9.29677712 C0,9.42216098 0.102729716,9.52380952 0.229447215,9.52380952 L2.79369653,9.52380952 C2.86064162,9.06927677 3.09250601,8.66777804 3.42857143,8.38095238 Z M13.5238095,9.80952381 C13.5238095,10.5985007 12.8841887,11.2380952 12.0952381,11.2380952 C11.3062612,11.2380952 10.6666667,10.5985007 10.6666667,9.80952381 C10.6666667,9.02052059 11.3062612,8.38095238 12.0952381,8.38095238 C12.8841887,8.38095238 13.5238095,9.02052059 13.5238095,9.80952381 Z M12.7619048,9.76189162 C12.7619048,9.36741041 12.4420871,9.04761905 12.0476059,9.04761905 C11.6530984,9.04761905 11.3333333,9.36741041 11.3333333,9.76189162 C11.3333333,10.1563728 11.6531247,10.4761905 12.0476059,10.4761905 C12.4420871,10.4761905 12.7619048,10.1563728 12.7619048,9.76189162 Z M16,8.60747741 L16,9.29665134 C16,9.42210467 15.8982416,9.52380952 15.7727223,9.52380952 L13.9326393,9.52380952 C13.80103,8.62165366 13.024205,7.92600287 12.0858678,7.92600287 C11.1473484,7.92600287 10.3704974,8.62167967 10.2388881,9.52380952 L6.5336339,9.52380952 C6.46729576,9.06905097 6.23764974,8.66730379 5.9047619,8.38031923 L9.41800251,8.38031923 L9.41800251,1.88288779 C9.41800251,1.63198113 9.62151927,1.42857143 9.87255798,1.42857143 L12.0182024,1.42857143 C12.6223505,1.42857143 13.1870184,1.7285097 13.5250592,2.2289444 L14.9082965,4.27659344 C15.1111887,4.5769479 15.2196095,4.93106807 15.2196095,5.2934859 L15.2196095,8.38031923 L15.7727223,8.38031923 C15.8982416,8.38031923 16,8.48202408 16,8.60747741 Z M13.6718749,4.3132329 L12.5499821,2.76189008 C12.5067969,2.70219242 12.4364756,2.66666667 12.3614558,2.66666667 L10.6114761,2.66666667 C10.4841905,2.66666667 10.3809524,2.76710464 10.3809524,2.89099526 L10.3809524,4.44233807 C10.3809524,4.56625438 10.4841641,4.66666667 10.6114761,4.66666667 L13.4834014,4.66666667 C13.6701327,4.66666667 13.7793629,4.46186054 13.6718749,4.3132329 Z"/>
</svg>
