<svg xmlns="http://www.w3.org/2000/svg" width="28" height="29" viewBox="0 0 28 29">
  <path fill="#FFF" d="M23.8927554,4.24013462 C18.4344612,-1.41319231 9.55268539,-1.41375 4.09385281,4.24013462 C-1.36497978,9.89401923 -1.36444132,19.0925962 4.09385281,24.7464808 C9.55214694,30.4003654 18.4339228,30.4003654 23.8927554,24.7464808 C29.3510495,19.0925962 29.3510495,9.89346154 23.8927554,4.24013462 Z M19.5140587,20.2113269 C19.0935272,20.6468846 18.4118462,20.6468846 17.9913147,20.2113269 L13.9933041,16.0704615 L9.80521967,20.4081923 C9.38468818,20.84375 8.70300717,20.84375 8.28247568,20.4081923 C7.86194419,19.9726346 7.86194419,19.2665962 8.28247568,18.8310385 L12.4705601,14.4933077 L8.47254945,10.3524423 C8.05201796,9.91688462 8.05201796,9.21028846 8.47254945,8.77528846 C8.89308094,8.33973077 9.57476195,8.33973077 9.99529344,8.77528846 L13.9933041,12.9161538 L17.8007025,8.97271154 C18.221234,8.53715385 18.902915,8.53715385 19.3234465,8.97271154 C19.743978,9.40826923 19.743978,10.1143077 19.3234465,10.5498654 L15.5160481,14.4933077 L19.5140587,18.6341731 C19.9345902,19.0697308 19.9345902,19.7757692 19.5140587,20.2113269 Z"/>
</svg>
