<svg xmlns="http://www.w3.org/2000/svg" width="29" height="26" viewBox="0 0 29 26">
  <path fill="#FFF" d="M28.3099437,21.7429444 L16.7138982,3.04266667 C16.3092164,2.38972222 15.5987164,2 14.8130801,2 C14.0274437,2 13.3169437,2.38972222 12.9135801,3.04138889 L1.31621642,21.7429444 C0.904943689,22.4061111 0.894398235,23.2353889 1.28721642,23.9087778 C1.67871642,24.5821667 2.41821642,25 3.2170346,25 L26.4104437,25 C27.2079437,25 27.9487619,24.5821667 28.3402619,23.9087778 C28.7330801,23.2353889 28.7212164,22.4061111 28.3099437,21.7429444 Z M16.1312619,21.1666667 L13.4948982,21.1666667 L13.4948982,18.6111111 L16.1312619,18.6111111 L16.1312619,21.1666667 Z M16.1312619,16.0555556 L13.4948982,16.0555556 L13.4948982,9.66666667 L16.1312619,9.66666667 L16.1312619,16.0555556 Z"/>
</svg>
