<svg xmlns="http://www.w3.org/2000/svg" width="6" height="9" viewBox="0 0 6 9">
  <path fill="#FFF" d="M55,546 C53.3457911,546 52,547.376174 52,549.067713 C52,551.166966 54.6847061,554.248791 54.7990099,554.378961 C54.9063729,554.501238 55.0938213,554.501023 55.2009901,554.378961 C55.3152939,554.248791 58,551.166966 58,549.067713 C58,547.376174 56.6541928,546 55,546 Z M55,550.611166 C54.1677264,550.611166 53.4906405,549.918777 53.4906405,549.067713 C53.4906405,548.21665 54.1677426,547.524278 55,547.524278 C55.8322574,547.524278 56.5093433,548.216666 56.5093433,549.06773 C56.5093433,549.918793 55.8322574,550.611166 55,550.611166 Z" transform="translate(-52 -546)"/>
</svg>
