<svg xmlns="http://www.w3.org/2000/svg" width="21" height="23" viewBox="0 0 21 23">
  <g fill="#5E5E5E">
    <path d="M9.79033333 10.7472292C9.79033333 11.0304167 10.0198542 11.2585 10.3020833 11.2585 10.5843125 11.2585 10.8138333 11.0289792 10.8138333 10.7472292 10.8143125 10.1482708 11.0270625 9.56608333 11.4132708 9.108 12.2724167 8.08929167 12.9164167 6.9848125 13.3241875 5.82522917 13.3792917 5.66854167 13.3553333 5.49508333 13.2595 5.35947917 13.1631875 5.223875 13.0079375 5.143375 12.8416667 5.143375L7.76202083 5.143375C7.59575 5.143375 7.44002083 5.223875 7.34370833 5.35947917 7.247875 5.49508333 7.22391667 5.66854167 7.27902083 5.82522917 7.68775 6.9848125 8.33079167 8.08929167 9.1899375 9.108 9.576625 9.56608333 9.78985417 10.14875 9.79033333 10.7472292zM10.8138333 12.7985417C10.8138333 12.5158333 10.5843125 12.2872708 10.3020833 12.2872708 10.0198542 12.2872708 9.79033333 12.5167917 9.79033333 12.7985417 9.78985417 13.5374167 9.34854167 14.2681458 8.54785417 14.860875 6.8353125 16.1253958 5.55354167 17.4991667 4.738 18.943375 4.64839583 19.1024583 4.64983333 19.2960417 4.7423125 19.45225 4.83335417 19.6098958 5.00202083 19.7062083 5.18410417 19.7062083L15.4210208 19.7062083C15.602625 19.7062083 15.7708125 19.6098958 15.8628125 19.45225 15.9543333 19.2960417 15.9557708 19.1024583 15.8666458 18.943375 15.0515833 17.4991667 13.7693333 16.1253958 12.0572708 14.860875 11.255625 14.2681458 10.8143125 13.5374167 10.8138333 12.7985417z"/>
    <path d="M19.2586667,20.4743125 L18.9524792,20.4743125 C18.6007708,16.491 16.2681875,13.4329583 14.4550208,11.2608958 C16.2686667,9.0893125 18.6002917,6.03079167 18.9534375,2.04747917 L19.259625,2.04747917 C19.8250417,2.04747917 20.283125,1.58891667 20.283125,1.0235 C20.283125,0.458083333 19.8250417,0 19.259625,0 L1.34502083,0 C0.779604167,0 0.321520833,0.4585625 0.321520833,1.0235 C0.321520833,1.58891667 0.779604167,2.04747917 1.34502083,2.04747917 L1.65120833,2.04747917 C2.00339583,6.03127083 4.33502083,9.08979167 6.14866667,11.2608958 C4.3355,13.4324792 2.00339583,16.4905208 1.65072917,20.4743125 L1.34502083,20.4743125 C0.779604167,20.4743125 0.321520833,20.9319167 0.321520833,21.4973333 C0.321520833,22.0632292 0.779604167,22.5217917 1.34502083,22.5217917 L2.624875,22.5217917 L17.9792917,22.5217917 L19.259625,22.5217917 C19.8250417,22.5217917 20.283125,22.0632292 20.283125,21.4973333 C20.283125,20.9319167 19.8245625,20.4743125 19.2586667,20.4743125 Z M3.703,20.4743125 C4.08777083,16.8752917 6.42754167,14.1037917 8.17602083,12.0328333 L8.26945833,11.9221458 C8.59145833,11.5412083 8.59145833,10.9834583 8.26945833,10.6020417 L8.1765,10.4918333 C6.4285,8.42039583 4.08777083,5.64889583 3.703,2.04939583 L16.9011667,2.04939583 C16.5163958,5.64889583 14.1756667,8.42039583 12.4276667,10.4918333 L12.3351875,10.6020417 C12.0131875,10.9829792 12.0131875,11.5407292 12.3351875,11.9221458 L12.428625,12.0328333 C14.176625,14.1037917 16.5163958,16.8752917 16.9011667,20.4743125 L3.703,20.4743125 Z"/>
  </g>
</svg>
