<svg xmlns="http://www.w3.org/2000/svg" width="44" height="44" viewBox="0 0 44 44">
  <path fill="#FFF" d="M22,0 C9.86953846,0 0,9.86869231 0,22 C0,34.1313077 9.86953846,44 22,44 C34.1304615,44 44,34.1313077 44,22 C44,9.86869231 34.1304615,0 22,0 Z M32.5769231,23.6923077 L23.6923077,23.6923077 L23.6923077,33 C23.6923077,33.9341538 22.9341538,34.6923077 22,34.6923077 C21.0658462,34.6923077 20.3076923,33.9341538 20.3076923,33 L20.3076923,23.6923077 L11.4230769,23.6923077 C10.4889231,23.6923077 9.73076923,22.9341538 9.73076923,22 C9.73076923,21.0658462 10.4889231,20.3076923 11.4230769,20.3076923 L20.3076923,20.3076923 L20.3076923,11.8461538 C20.3076923,10.912 21.0658462,10.1538462 22,10.1538462 C22.9341538,10.1538462 23.6923077,10.912 23.6923077,11.8461538 L23.6923077,20.3076923 L32.5769231,20.3076923 C33.5110769,20.3076923 34.2692308,21.0658462 34.2692308,22 C34.2692308,22.9341538 33.5110769,23.6923077 32.5769231,23.6923077 Z"/>
</svg>
