<svg xmlns="http://www.w3.org/2000/svg" width="10" height="14" viewBox="0 0 10 14">
  <path fill="#727272" d="M293.999792,121 C291.24304,121 289,123.202118 289,125.908848 C289,126.614868 289.147192,127.288958 289.437266,127.912559 C290.687353,130.598139 293.084117,133.433546 293.789081,134.238497 C293.841898,134.298674 293.918899,134.333333 293.999931,134.333333 C294.080962,134.333333 294.157964,134.298674 294.21078,134.238497 C294.915466,133.433683 297.31223,130.598412 298.562734,127.912559 C298.852947,127.288958 299,126.614868 299,125.908848 C298.999722,123.202118 296.756682,121 293.999792,121 Z M294,128.777778 C292.468402,128.777778 291.222222,127.531632 291.222222,126.000074 C291.222222,124.468368 292.468402,123.222222 294,123.222222 C295.531598,123.222222 296.777778,124.468368 296.777778,126.000074 C296.777926,127.531632 295.531747,128.777778 294,128.777778 Z" transform="translate(-289 -121)"/>
</svg>
