<svg xmlns="http://www.w3.org/2000/svg" width="44" height="44" viewBox="0 0 44 44">
  <g fill="#FFF">
    <path d="M36.6666953 9.16669531C32.6231641 9.16669531 29.3333906 12.4564688 29.3333906 16.5 29.3333906 19.2324687 32.4823125 24.1355469 34.4519141 26.9371953 34.3338359 27.0267422 34.22925 27.1349375 34.1637656 27.2789687 33.9649922 27.7149297 34.1368672 28.2251406 34.5460156 28.4561406 34.1458906 28.7023516 33.99275 29.2179766 34.2067344 29.6467187 34.3678672 29.968125 34.6909922 30.1534062 35.0276094 30.1534062 35.1654531 30.1534062 35.3051016 30.1220391 35.4366719 30.0567266L37.0723203 29.2388594 37.07275 29.2387734 37.0767031 29.2367969 37.0777344 29.2346484C37.1998516 29.1732891 37.3089922 29.0859766 37.3945 28.9745156 38.0703125 28.0916797 44 20.2463594 44 16.5 44 12.4564688 40.7102266 9.16669531 36.6666953 9.16669531zM36.6666953 18.3333047C35.6560703 18.3333047 34.8333906 17.510625 34.8333906 16.5 34.8333906 15.489375 35.6560703 14.6666953 36.6666953 14.6666953 37.6773203 14.6666953 38.5 15.489375 38.5 16.5 38.5 17.510625 37.6773203 18.3333047 36.6666953 18.3333047zM9.57197656 41.5696016C11.5430391 38.7625391 14.6666953 33.88825 14.6666953 31.1666953 14.6666953 27.1231641 11.3769219 23.8333906 7.33339062 23.8333906 3.28977344 23.8333906 0 27.1231641 0 31.1666953 0 34.9130547 5.9296875 42.758375 6.60558594 43.6410391 6.77926562 43.8674844 7.04782031 44 7.33339062 44 7.47776562 44 7.61715625 43.9652813 7.74271094 43.9026328L7.74339844 43.9033203 9.38334375 43.0833047C9.83632031 42.8568594 10.0197969 42.3062578 9.79335156 41.8532813 9.73732031 41.7412188 9.66100781 41.6464297 9.57197656 41.5696016zM7.33330469 33C6.32267969 33 5.5 32.1773203 5.5 31.1666953 5.5 30.1560703 6.32267969 29.3333906 7.33330469 29.3333906 8.34392969 29.3333906 9.16660938 30.1560703 9.16660938 31.1666953 9.16660938 32.1773203 8.34401563 33 7.33330469 33zM20.1424609 35.6533203L17.2483438 37.1008516C16.7953672 37.3272969 16.6118906 37.8778984 16.8383359 38.330875 16.9994688 38.6522812 17.3225937 38.8375625 17.6592109 38.8375625 17.7970547 38.8375625 17.9367031 38.8061953 18.0682734 38.7408828L20.9623906 37.2933516C21.4153672 37.0669062 21.5988438 36.5163047 21.3723984 36.0633281 21.1450938 35.6103516 20.5936328 35.4285937 20.1424609 35.6533203zM31.7225391 29.8632812L28.8274766 31.3108125C28.3745 31.5372578 28.1910234 32.0878594 28.4174688 32.5408359 28.5786016 32.8622422 28.9017266 33.0475234 29.2383438 33.0475234 29.3761875 33.0475234 29.5158359 33.0161563 29.6474062 32.9508437L32.5424687 31.5033125C32.9954453 31.2768672 33.1789219 30.7262656 32.9524766 30.2732891 32.7261172 29.8211719 32.1746562 29.6395 31.7225391 29.8632812z"/>
    <path d="M14.3533672 38.5483828L11.4583047 39.9959141C11.0053281 40.2223594 10.8218516 40.7729609 11.0482969 41.2259375 11.2094297 41.5473437 11.5325547 41.732625 11.8691719 41.732625 12.0070156 41.732625 12.1466641 41.7012578 12.2782344 41.6359453L15.1732969 40.1884141C15.6262734 39.9619687 15.80975 39.4113672 15.5833047 38.9583906 15.356 38.5054141 14.8053984 38.3245156 14.3533672 38.5483828zM25.9325 32.7583438L23.0374375 34.205875C22.5844609 34.4323203 22.4009844 34.9829219 22.6274297 35.4358984 22.7885625 35.7573047 23.1116875 35.9425859 23.4483047 35.9425859 23.5861484 35.9425859 23.7257969 35.9112188 23.8573672 35.8459063L26.7524297 34.398375C27.2054063 34.1719297 27.3888828 33.6213281 27.1624375 33.1683516 26.9351328 32.715375 26.3854766 32.5327578 25.9325 32.7583438zM31.6312734 27.0452188C31.9804375 27.0452188 32.3134453 26.8455859 32.4665 26.5081094 32.6760156 26.0470547 32.4727734 25.5036719 32.0117188 25.2942422L28.6458047 23.7643828C28.1794219 23.5531484 27.6405078 23.7599141 27.4319375 24.2191641 27.2224219 24.6802188 27.4256641 25.2236016 27.8867187 25.4330313L31.2526328 26.9628906C31.376125 27.0192656 31.5050312 27.0452188 31.6312734 27.0452188zM20.7010547 21.1594453C20.4915391 21.6205 20.6947812 22.1638828 21.1558359 22.3733125L24.5208047 23.9031719C24.6443828 23.9595469 24.7732891 23.9855 24.8994453 23.9855 25.2486094 23.9855 25.5816172 23.7858672 25.7346719 23.4483906 25.9441875 22.9873359 25.7409453 22.4439531 25.2798906 22.2345234L21.9149219 20.7046641C21.4512891 20.4924844 20.9087656 20.7001953 20.7010547 21.1594453zM18.1677031 20.9249219C18.5168672 20.9249219 18.849875 20.7252891 19.0029297 20.3878125 19.2124453 19.9267578 19.0083437 19.383375 18.5481484 19.1739453L17.9150469 18.8862266C19.6515 16.5158984 23.8333047 10.4832578 23.8333047 7.33330469 23.8333047 3.28977344 20.5435312 0 16.5 0 12.4564687 0 9.16669531 3.28977344 9.16669531 7.33330469 9.16669531 11.0796641 15.0963828 18.9249844 15.7722812 19.8076484 15.8629453 19.9258125 15.9805937 20.0147578 16.1119062 20.0762031 16.1175781 20.0788672 16.1144844 20.0814453 16.1205 20.0842813L17.7890625 20.8425078C17.9126406 20.8989687 18.0415469 20.9249219 18.1677031 20.9249219zM14.6666953 7.33330469C14.6666953 6.32267969 15.489375 5.5 16.5 5.5 17.510625 5.5 18.3333047 6.32267969 18.3333047 7.33330469 18.3333047 8.34392969 17.510625 9.16660938 16.5 9.16660938 15.489375 9.16660938 14.6666953 8.34401563 14.6666953 7.33330469z"/>
  </g>
</svg>
