<svg xmlns="http://www.w3.org/2000/svg" width="29" height="29" viewBox="0 0 29 29">
  <path fill="#FFF" d="M24.7464808,4.24013462 C19.0931538,-1.41319231 9.89401923,-1.41375 4.24013462,4.24013462 C-1.41375,9.89401923 -1.41319231,19.0925962 4.24013462,24.7464808 C9.89346154,30.4003654 19.0925962,30.4003654 24.7464808,24.7464808 C30.3998077,19.0925962 30.3998077,9.89346154 24.7464808,4.24013462 Z M20.2113269,20.2113269 C19.7757692,20.6468846 19.0697308,20.6468846 18.6341731,20.2113269 L14.4933077,16.0704615 L10.1555769,20.4081923 C9.72001923,20.84375 9.01398077,20.84375 8.57842308,20.4081923 C8.14286538,19.9726346 8.14286538,19.2665962 8.57842308,18.8310385 L12.9161538,14.4933077 L8.77528846,10.3524423 C8.33973077,9.91688462 8.33973077,9.21028846 8.77528846,8.77528846 C9.21084615,8.33973077 9.91688462,8.33973077 10.3524423,8.77528846 L14.4933077,12.9161538 L18.43675,8.97271154 C18.8723077,8.53715385 19.5783462,8.53715385 20.0139038,8.97271154 C20.4494615,9.40826923 20.4494615,10.1143077 20.0139038,10.5498654 L16.0704615,14.4933077 L20.2113269,18.6341731 C20.6468846,19.0697308 20.6468846,19.7757692 20.2113269,20.2113269 Z"/>
</svg>
