<svg xmlns="http://www.w3.org/2000/svg" width="42" height="42" viewBox="0 0 42 42">
  <g fill="none" fill-rule="evenodd">
    <circle cx="21" cy="21" r="21" fill="#E3FDEA"/>
    <path fill="#19BC9C" fill-rule="nonzero" d="M11.5,0 C5.149125,0 0,5.149125 0,11.5 C0,17.850875 5.149125,23 11.5,23 C17.850875,23 23,17.850875 23,11.5 C23,5.149125 17.850875,0 11.5,0 Z M11.5,2.875 C15.2425313,2.875 18.4035938,5.2856875 19.5974375,8.625 L3.4025625,8.625 C4.59640625,5.2856875 7.75746875,2.875 11.5,2.875 Z M11.5,12.9375 C10.7057812,12.9375 10.0625,12.2942188 10.0625,11.5 C10.0625,10.7057812 10.7057812,10.0625 11.5,10.0625 C12.2942188,10.0625 12.9375,10.7057812 12.9375,11.5 C12.9375,12.2942188 12.2942188,12.9375 11.5,12.9375 Z M2.875,11.5 C6.80296875,11.5 9.98415625,15.2849375 10.051,19.9790937 C5.98575,19.282625 2.875,15.7593125 2.875,11.5 Z M12.949,19.9790937 C13.0158437,15.2849375 16.1970312,11.5 20.125,11.5 C20.125,15.7593125 17.01425,19.282625 12.949,19.9790937 Z" transform="translate(10 10)"/>
  </g>
</svg>
