<svg xmlns="http://www.w3.org/2000/svg" width="42" height="42" viewBox="0 0 42 42">
  <g fill="none" fill-rule="evenodd">
    <circle cx="21" cy="21" r="21" fill="#C8B088"/>
    <path fill="#FFF" fill-rule="nonzero" d="M28.749197,11.9252643 C24.4942913,8.75632503 20.2400949,14.9193296 15.9852286,12.7759431 L15.9852286,12.3199926 C15.9852286,11.7537282 15.540591,11.2943177 14.9925749,11.2943177 C14.4445588,11.2943177 14,11.7537282 14,12.3199926 L14,29.9744065 C14,30.5405895 14.4445588,31 14.9925749,31 C15.540591,31 15.9852286,30.5405895 15.9852286,29.9744065 L15.9852286,22.4952474 C20.0293982,24.5317801 24.0736466,19.0651777 28.1185254,21.2406407 C28.3052291,21.3414701 28.5295571,21.3347942 28.7097603,21.2212239 C28.890121,21.1084269 29,20.9067682 29,20.6883793 C29,17.9361497 29,15.1837573 29,12.4307543 C29,12.2311716 28.9061557,12.0420912 28.749197,11.9252643 Z"/>
  </g>
</svg>
