<svg xmlns="http://www.w3.org/2000/svg" width="30" height="32" viewBox="0 0 30 32">
  <path fill="#19BC9C" d="M20.025,38 C21.84,38 23.325,36.515 23.325,34.7 L16.725,34.7 C16.725,36.515 18.21,38 20.025,38 Z M30.75,28.1 L30.75,19.025 C30.75,13.91 27.285,9.785 22.5,8.63 L22.5,7.475 C22.5,6.155 21.345,5 20.025,5 C18.705,5 17.55,6.155 17.55,7.475 L17.55,8.63 C12.765,9.785 9.3,13.91 9.3,19.025 L9.3,28.1 L6,31.4 L6,33.05 L34.05,33.05 L34.05,31.4 L30.75,28.1 Z" transform="rotate(24 33.139 13.795)"/>
</svg>
