<svg xmlns="http://www.w3.org/2000/svg" width="23" height="23" viewBox="0 0 23 23">
  <g fill="#5E5E5E">
    <path d="M19.1666816 4.79168164C17.0530176 4.79168164 15.3333633 6.51133594 15.3333633 8.625 15.3333633 10.0533359 16.9793906 12.6163086 18.0089551 14.0808066 17.9472324 14.1276152 17.8925625 14.1841719 17.858332 14.2594609 17.7544277 14.4873496 17.8442715 14.7540508 18.0581445 14.8748008 17.8489883 15.003502 17.7689375 15.2730332 17.880793 15.4971484 17.9650215 15.6651562 18.1339277 15.7620078 18.3098867 15.7620078 18.3819414 15.7620078 18.4549395 15.7456113 18.5237148 15.7114707L19.3787129 15.2839492 19.3789375 15.2839043 19.3810039 15.2828711 19.381543 15.281748C19.445377 15.2496738 19.5024277 15.2040332 19.547125 15.1457695 19.9003906 14.6842871 23 10.5833242 23 8.625 23 6.51133594 21.2803457 4.79168164 19.1666816 4.79168164zM19.1666816 9.58331836C18.6384004 9.58331836 18.2083633 9.15328125 18.2083633 8.625 18.2083633 8.09671875 18.6384004 7.66668164 19.1666816 7.66668164 19.6949629 7.66668164 20.125 8.09671875 20.125 8.625 20.125 9.15328125 19.6949629 9.58331836 19.1666816 9.58331836zM5.0035332 21.7295645C6.03386133 20.2622363 7.66668164 17.7143125 7.66668164 16.2916816 7.66668164 14.1780176 5.94702734 12.4583633 3.83336328 12.4583633 1.7196543 12.4583633 0 14.1780176 0 16.2916816 0 18.2500059 3.09960938 22.3509687 3.45291992 22.8123613 3.54370703 22.9307305 3.68408789 23 3.83336328 23 3.90883203 23 3.98169531 22.9818516 4.04732617 22.9491035L4.04768555 22.9494629 4.90492969 22.5208184C5.14171289 22.4024492 5.23762109 22.1146348 5.11925195 21.8778516 5.08996289 21.8192734 5.05007227 21.7697246 5.0035332 21.7295645zM3.83331836 17.25C3.30503711 17.25 2.875 16.8199629 2.875 16.2916816 2.875 15.7634004 3.30503711 15.3333633 3.83331836 15.3333633 4.36159961 15.3333633 4.79163672 15.7634004 4.79163672 16.2916816 4.79163672 16.8199629 4.36164453 17.25 3.83331836 17.25zM10.5290137 18.6369629L9.01617969 19.393627C8.77939648 19.5119961 8.68348828 19.7998105 8.80185742 20.0365937 8.88608594 20.2046016 9.05499219 20.3014531 9.23095117 20.3014531 9.30300586 20.3014531 9.37600391 20.2850566 9.4447793 20.250916L10.9576133 19.494252C11.1943965 19.3758828 11.2903047 19.0880684 11.1719355 18.8512852 11.0531172 18.614502 10.7648535 18.5194922 10.5290137 18.6369629zM16.5822363 15.6103516L15.0689082 16.3670156C14.832125 16.4853848 14.7362168 16.7731992 14.8545859 17.0099824 14.9388145 17.1779902 15.1077207 17.2748418 15.2836797 17.2748418 15.3557344 17.2748418 15.4287324 17.2584453 15.4975078 17.2243047L17.0108359 16.4676406C17.2476191 16.3492715 17.3435273 16.061457 17.2251582 15.8246738 17.106834 15.5883398 16.8185703 15.493375 16.5822363 15.6103516z"/>
    <path d="M7.50289648 20.150291L5.98956836 20.9069551C5.75278516 21.0253242 5.65687695 21.3131387 5.77524609 21.5499219 5.85947461 21.7179297 6.02838086 21.8147812 6.20433984 21.8147812 6.27639453 21.8147812 6.34939258 21.7983848 6.41816797 21.7642441L7.93149609 21.0075801C8.1682793 20.8892109 8.2641875 20.6013965 8.14581836 20.3646133 8.027 20.1278301 7.73918555 20.0332695 7.50289648 20.150291zM13.555625 17.1236797L12.0422969 17.8803438C11.8055137 17.9987129 11.7096055 18.2865273 11.8279746 18.5233105 11.9122031 18.6913184 12.0811094 18.7881699 12.2570684 18.7881699 12.329123 18.7881699 12.4021211 18.7717734 12.4708965 18.7376328L13.9842246 17.9809688C14.2210078 17.8625996 14.316916 17.5747852 14.1985469 17.338002 14.0797285 17.1012188 13.7924082 17.0057598 13.555625 17.1236797zM16.5345293 14.1372734C16.7170469 14.1372734 16.8911191 14.0329199 16.971125 13.8565117 17.0806445 13.6155059 16.9744043 13.3314648 16.7333984 13.2219902L14.9739434 12.422291C14.7301523 12.311873 14.4484473 12.4199551 14.3394219 12.6600176 14.2299023 12.9010234 14.3361426 13.1850645 14.5771484 13.2945391L16.3366035 14.0942383C16.4011562 14.123707 16.4685391 14.1372734 16.5345293 14.1372734zM10.8210059 11.0606191C10.7114863 11.301625 10.8177266 11.585666 11.0587324 11.6951406L12.8176934 12.4948398C12.882291 12.5243086 12.9496738 12.537875 13.0156191 12.537875 13.1981367 12.537875 13.372209 12.4335215 13.4522148 12.2571133 13.5617344 12.0161074 13.4554941 11.7320664 13.2144883 11.6225918L11.4555273 10.8228926C11.2131738 10.7119805 10.929582 10.8205566 10.8210059 11.0606191zM9.49675391 10.9380273C9.67927148 10.9380273 9.85334375 10.8336738 9.93334961 10.6572656 10.0428691 10.4162598 9.93617969 10.1322187 9.69562305 10.0227441L9.36468359 9.8723457C10.272375 8.63331055 12.4583184 5.47988477 12.4583184 3.83331836 12.4583184 1.7196543 10.7386641 0 8.625 0 6.51133594 0 4.79168164 1.7196543 4.79168164 3.83331836 4.79168164 5.79164258 7.89129102 9.89260547 8.24460156 10.353998 8.29199414 10.4157656 8.35349219 10.4622598 8.42213281 10.4943789 8.42509766 10.4957715 8.42348047 10.4971191 8.426625 10.4986016L9.29882812 10.8949473C9.36342578 10.9244609 9.43080859 10.9380273 9.49675391 10.9380273zM7.66668164 3.83331836C7.66668164 3.30503711 8.09671875 2.875 8.625 2.875 9.15328125 2.875 9.58331836 3.30503711 9.58331836 3.83331836 9.58331836 4.36159961 9.15328125 4.79163672 8.625 4.79163672 8.09671875 4.79163672 7.66668164 4.36164453 7.66668164 3.83331836z"/>
  </g>
</svg>
