<svg xmlns="http://www.w3.org/2000/svg" width="62" height="62" viewBox="0 0 62 62">
  <path fill="#00A999" d="M31,0 C13.9067023,0 0,13.9063062 0,30.9998383 C0,48.0933703 13.9067023,62 31,62 C48.0932977,62 62,48.0933703 62,30.9998383 C62,13.9063062 48.0936212,0 31,0 Z M48.7237601,25.4194612 L29.3335452,44.7271853 C28.5090738,45.5481492 27.4131065,46 26.2472524,46 C25.0813983,46 23.9854311,45.5481492 23.1609596,44.7271853 L13.2785748,34.8868426 C12.4541034,34.0658787 12,32.9745739 12,31.8136797 C12,30.6524647 12.4541034,29.56116 13.2785748,28.7401961 C14.1027242,27.9192322 15.1986914,27.4670607 16.3648676,27.4670607 C17.5307217,27.4670607 18.627011,27.9192322 19.4511604,28.7405168 L26.2469304,35.5070552 L42.5505304,19.2728147 C43.3750018,18.4518508 44.4709691,18 45.6368232,18 C46.8026773,18 47.8986446,18.4518508 48.723116,19.2728147 C50.4255206,20.9679769 50.4255206,23.7249404 48.7237601,25.4194612 Z"/>
</svg>
