<svg xmlns="http://www.w3.org/2000/svg" xmlns:xlink="http://www.w3.org/1999/xlink" width="157" height="56" viewBox="0 0 157 56">
  <defs>
    <path id="tracking-system-logo-a" d="M114.432655,23.7091705 C113.809827,23.8828111 113.431681,24.5556682 113.65412,25.2068203 C114.365924,27.3773272 116.456847,28.9400922 118.903673,28.9400922 C121.951083,28.9400922 124.442396,26.5308295 124.442396,23.557235 L124.442396,14.9403226 C124.442396,14.2674654 123.8863,13.7465438 123.218984,13.7465438 C122.529424,13.7465438 121.973327,14.2674654 121.973327,14.9403226 L121.973327,23.557235 C121.973327,25.1851152 120.594207,26.5308295 118.903673,26.5308295 C117.595257,26.5308295 116.472991,25.7235338 116.035494,24.5954823 L115.989726,24.4688479 C115.789531,23.8394009 115.099971,23.4921198 114.432655,23.7091705 Z M139.871504,13.7465438 L139.849871,13.7465438 C139.460477,13.7465438 139.11435,13.9201843 138.876387,14.2457604 L134.571429,20.2363594 L130.26647,14.2457604 C130.05014,13.9201843 129.660747,13.7465438 129.314619,13.7465438 L129.249721,13.7465438 C128.600732,13.7465438 128.059908,14.2891705 128.059908,14.9403226 L128.059908,27.7463134 C128.059908,28.3974654 128.600732,28.9400922 129.249721,28.9400922 C129.920342,28.9400922 130.461166,28.3974654 130.461166,27.7463134 L130.461166,18.6084793 L133.554679,22.9494931 C133.771009,23.2454713 134.09461,23.415883 134.444215,23.4444208 L134.593062,23.4487097 C134.982455,23.4487097 135.328582,23.2750691 135.566545,22.9494931 L138.681691,18.6084793 L138.681691,27.7463134 C138.681691,28.3974654 139.200882,28.9400922 139.871504,28.9400922 C140.520492,28.9400922 141.082949,28.3974654 141.082949,27.7463134 L141.082949,14.9403226 C141.082949,14.2891705 140.520492,13.7682488 139.871504,13.7465438 Z M145.12663,26.726316 C144.630967,26.3278363 144.563377,25.5972901 144.946389,25.1102594 C145.351931,24.6232286 146.095424,24.5568153 146.591087,24.9552951 C147.582412,25.7522545 149.294701,26.6820405 150.894339,26.6599027 C152.020845,26.6599027 153.0347,26.3278363 153.710603,25.8408055 C154.386507,25.3537748 154.679398,24.8003307 154.679398,24.2468867 C154.679398,23.9590958 154.611808,23.7598559 154.476627,23.5384783 C154.341446,23.3171007 154.138675,23.0957231 153.800724,22.8743454 C153.14735,22.453728 152.043375,22.077386 150.714098,21.8338706 L150.669038,21.8338706 C149.610122,21.6346308 148.618797,21.3689777 147.762653,20.9704979 C146.906509,20.5720182 146.163015,20.0185742 145.667352,19.2437525 C145.329401,18.7124462 145.14916,18.0925889 145.14916,17.4284561 C145.14916,16.1001904 145.915184,14.9490267 146.951569,14.1963428 C148.010484,13.4436589 149.384821,13.0230415 150.849279,13.0230415 C153.01217,13.0230415 154.611808,14.0635163 155.760844,14.7940624 C156.279036,15.1482666 156.436747,15.856675 156.076265,16.3658435 C155.738314,16.8971498 155.01735,17.0521141 154.476627,16.6979099 L154.094851,16.4510845 C153.078926,15.8058401 152.070912,15.2810932 150.849279,15.2810932 C149.835424,15.2810932 148.934219,15.5910218 148.325906,16.0337771 C147.717593,16.4765323 147.469761,16.9635631 147.469761,17.4284561 C147.469761,17.6941092 147.514822,17.8712113 147.627472,18.0483134 C147.740123,18.2254155 147.942894,18.4246553 148.235785,18.6238952 C148.821568,19.0223749 149.835424,19.3765791 151.05205,19.5979567 L151.09711,19.5979567 C152.246146,19.8193343 153.305061,20.1071252 154.206266,20.5277427 C155.13,20.9704979 155.941085,21.5460797 156.459277,22.3651769 C156.797229,22.8964832 157,23.5606161 157,24.2468867 C157,25.6637034 156.188916,26.8812803 155.06241,27.6782397 C153.958435,28.4751992 152.493977,28.9400922 150.894339,28.9400922 C148.461087,28.9179544 146.410846,27.7225153 145.12663,26.726316 Z"/>
  </defs>
  <g fill="none" fill-rule="evenodd">
    <path fill="#006FAD" fill-rule="nonzero" d="M32.1524424 17.1904147L24.5701382 17.1904147 24.5701382 31.5157604 32.1524424 31.5157604C34.1726624 31.5117796 35.8093833 29.8750587 35.8133727 27.8548387L35.8133727 26.9794009C35.8155353 25.987218 35.4100907 25.037693 34.6919355 24.3530876 35.4069595 23.663326 35.8116178 22.7130317 35.8133727 21.7195392L35.8133727 20.8441014C35.8093738 18.8250562 34.1714915 17.1904147 32.1524424 17.1904147zM26.6393548 19.2523963L32.1524424 19.2523963C33.0338665 19.2563578 33.747421 19.9699123 33.7513825 20.8513364L33.7513825 21.7195392C33.747421 22.6009633 33.0338665 23.3145177 32.1524424 23.3184793L26.6393548 23.3184793 26.6393548 19.2523963zM33.7513825 27.8331336C33.7434756 28.711731 33.0310666 29.4209165 32.1524424 29.4248387L26.6393548 29.4248387 26.6393548 25.3876959 32.1524424 25.3876959C33.0310666 25.3916181 33.7434756 26.1008035 33.7513825 26.9794009L33.7513825 27.8331336zM46.6803687 17.2482913C43.7849495 17.2453688 41.1731403 18.9876619 40.0637593 21.6621215 38.9543782 24.3365811 39.5661072 27.4160161 41.6134787 29.4633876 43.6608503 31.5107592 46.7402853 32.1224881 49.4147449 31.0131071 52.0892045 29.903726 53.8314976 27.2919168 53.8285751 24.3964977 53.8285751 20.4486543 50.628212 17.2482913 46.6803687 17.2482913L46.6803687 17.2482913zM46.6803687 29.5117072C44.2682179 29.5011428 42.1982321 27.7908332 41.7330143 25.4239461 41.2677965 23.057059 42.5364686 20.6905276 44.7651948 19.767835 46.993921 18.8451423 49.5641148 19.6223832 50.9080678 21.6254739 52.2520208 23.6285647 51.9967168 26.3015442 50.2978802 28.0140092 49.3415706 28.9779905 48.0382173 29.5175788 46.6803687 29.5117072L46.6803687 29.5117072zM13.0158065 17.2482928C9.60669642 17.2509079 6.67384827 19.6605813 6.00994216 23.0044214 5.34603605 26.3482615 7.13585224 29.6956011 10.2853798 31.0004053 13.4349074 32.3052096 17.0675607 31.2043217 18.9629092 28.3706506 20.8582577 25.5369795 20.4887826 21.7592007 18.0803226 19.3464516 16.7380693 18.001808 14.9157296 17.2468387 13.0158065 17.2482928L13.0158065 17.2482928zM13.0158065 29.5117072C10.5835573 29.5082805 8.49206275 27.7880259 8.01942841 25.4021374 7.54679406 23.0162488 8.82452361 20.6285654 11.0718007 19.6981927 13.3190777 18.76782 15.9106297 19.5536208 17.2627677 21.5753949 18.6149057 23.5971689 18.3514167 26.2923867 16.633318 28.0140092 15.6770084 28.9779905 14.3736551 29.5175788 13.0158065 29.5117072z"/>
    <path fill="#006FAD" fill-rule="nonzero" d="M69.7745622,12.0390783 C66.258341,6.59834101 58.4228111,5.5275576 54.1613825,5.5275576 C50.9859056,5.50761321 47.9074434,6.62099039 45.4793548,8.6675576 C42.071659,3.20511521 35.495023,-0.0144700461 28.578341,0.434101382 C21.661659,0.882672811 15.6565899,4.84746544 13.1170968,10.6933641 C5.81695853,10.9031797 0.00723502304,16.322212 0,22.9422581 C0,29.7070046 6.07018433,37.7957604 13.5367281,37.7957604 C13.628038,37.8068209 13.7203491,37.8068209 13.811659,37.7957604 L77.0312903,37.7957604 C77.1250484,37.8063344 77.2196981,37.8063344 77.3134562,37.7957604 C84.772765,37.7957604 85.5975576,29.7070046 85.5975576,22.9494931 C85.5975576,16.4524424 76.8793548,12.4008295 69.7745622,12.0390783 Z M76.3584332,35.9146544 L77.3134562,35.9146544 L73.9708756,35.9146544 L12.567235,35.9146544 C6.69963134,35.4516129 2.08368664,28.3757604 2.08368664,22.927788 C2.08368664,17.1976498 7.23502304,12.567235 13.5511982,12.56 C13.9179328,12.5653738 14.2608457,12.3788292 14.455576,12.0680184 C14.6859481,11.9758808 14.870582,11.7964479 14.9692627,11.5688018 C17.2338249,6.12806452 22.927788,2.44543779 29.3090783,2.24285714 C35.6903687,2.0402765 41.6520276,5.34668203 44.3217512,10.6354839 C44.4809438,10.9400977 44.7828252,11.1440716 45.1248387,11.1781106 C45.4775457,11.2149937 45.826024,11.0772232 46.0581567,10.8091244 C48.155848,8.57344399 51.0958927,7.32129992 54.1613825,7.35801843 C57.8874194,7.35801843 63.3643318,7.220553 68.3058525,13.3992627 C68.5002031,13.6930573 68.8290299,13.8696998 69.1812903,13.8695392 C75.4178802,13.9491244 83.535576,17.27 83.535576,22.9422581 C83.535576,28.6145161 82.6673733,35.9218894 76.3584332,35.9218894 L76.3584332,35.9146544 Z"/>
    <path fill="#006FAD" d="M69.4779263 17.5087558C69.074259 17.1191707 68.4345889 17.1191707 68.0309217 17.5087558L62.6335945 22.8916129 57.2217972 17.5087558C56.980105 17.1818719 56.5693775 17.026827 56.1719662 17.1124566 55.774555 17.1980861 55.464123 17.5085181 55.3784935 17.9059294 55.2928639 18.3033407 55.4479088 18.7140681 55.7747926 18.9557604L61.1576498 24.3313825 55.7747926 29.7070046C55.4600899 30.117322 55.4939705 30.6963726 55.8543779 31.0671889 56.2109871 31.4366558 56.7856245 31.486087 57.2000922 31.1829493L62.6118894 25.8217972 68.0092166 31.2046544C68.2681038 31.485012 68.6580768 31.6039399 69.0293548 31.5157604 69.3804932 31.4177827 69.6548795 31.1433965 69.7528571 30.7922581 69.8446977 30.4230644 69.7249976 30.0333432 69.4417512 29.7793548L64.044424 24.3820276 69.4417512 19.0064055C69.6476599 18.8140233 69.7675143 18.5468913 69.774319 18.2651768 69.7811237 17.9834623 69.6743065 17.7108551 69.4779263 17.5087558L69.4779263 17.5087558zM39.5249309 10.8091244C37.4285898 7.19971321 33.5699249 4.97855011 29.3958986 4.97855011 25.2218724 4.97855011 21.3632074 7.19971321 19.2668664 10.8091244 19.024429 11.2978769 19.2031807 11.8908946 19.6753379 12.1642488 20.1474951 12.4376029 20.7507768 12.2973415 21.0539171 11.8437327 22.780281 8.87324475 25.956567 7.04546927 29.3922811 7.04546927 32.8279952 7.04546927 36.0042812 8.87324475 37.7306452 11.8437327 37.9147423 12.1655893 38.2570006 12.3643199 38.627788 12.3646544 38.8101404 12.3627324 38.9891526 12.3154931 39.1487097 12.2271889 39.3858217 12.0898495 39.5617355 11.8673702 39.6406912 11.604977 39.7085519 11.3348066 39.6669461 11.0487674 39.5249309 10.8091244L39.5249309 10.8091244z"/>
    <polygon fill="#006FAD" points="4.312 4.232 4.312 8.082 3.769 8.082 3.769 4.232 2.344 4.232 2.344 3.748 5.737 3.748 5.737 4.232"/>
    <polygon fill="#006FAD" points="8.624 8.082 8.045 8.082 6.808 4.45 6.808 8.082 6.287 8.082 6.287 3.748 7.054 3.748 8.349 7.524 9.601 3.748 10.368 3.748 10.368 8.082 9.84 8.082 9.84 4.45"/>
    <path fill="#006FAD" fill-rule="nonzero" d="M32.1524424 17.1904147L24.5701382 17.1904147 24.5701382 31.5157604 32.1524424 31.5157604C34.1726624 31.5117796 35.8093833 29.8750587 35.8133727 27.8548387L35.8133727 26.9794009C35.8155353 25.987218 35.4100907 25.037693 34.6919355 24.3530876 35.4069595 23.663326 35.8116178 22.7130317 35.8133727 21.7195392L35.8133727 20.8441014C35.8093738 18.8250562 34.1714915 17.1904147 32.1524424 17.1904147zM26.6393548 19.2523963L32.1524424 19.2523963C33.0338665 19.2563578 33.747421 19.9699123 33.7513825 20.8513364L33.7513825 21.7195392C33.747421 22.6009633 33.0338665 23.3145177 32.1524424 23.3184793L26.6393548 23.3184793 26.6393548 19.2523963zM33.7513825 27.8331336C33.7434756 28.711731 33.0310666 29.4209165 32.1524424 29.4248387L26.6393548 29.4248387 26.6393548 25.3876959 32.1524424 25.3876959C33.0310666 25.3916181 33.7434756 26.1008035 33.7513825 26.9794009L33.7513825 27.8331336zM46.6803687 17.2482913C43.7849495 17.2453688 41.1731403 18.9876619 40.0637593 21.6621215 38.9543782 24.3365811 39.5661072 27.4160161 41.6134787 29.4633876 43.6608503 31.5107592 46.7402853 32.1224881 49.4147449 31.0131071 52.0892045 29.903726 53.8314976 27.2919168 53.8285751 24.3964977 53.8285751 20.4486543 50.628212 17.2482913 46.6803687 17.2482913L46.6803687 17.2482913zM46.6803687 29.5117072C44.2682179 29.5011428 42.1982321 27.7908332 41.7330143 25.4239461 41.2677965 23.057059 42.5364686 20.6905276 44.7651948 19.767835 46.993921 18.8451423 49.5641148 19.6223832 50.9080678 21.6254739 52.2520208 23.6285647 51.9967168 26.3015442 50.2978802 28.0140092 49.3415706 28.9779905 48.0382173 29.5175788 46.6803687 29.5117072L46.6803687 29.5117072zM13.0158065 17.2482928C9.60669642 17.2509079 6.67384827 19.6605813 6.00994216 23.0044214 5.34603605 26.3482615 7.13585224 29.6956011 10.2853798 31.0004053 13.4349074 32.3052096 17.0675607 31.2043217 18.9629092 28.3706506 20.8582577 25.5369795 20.4887826 21.7592007 18.0803226 19.3464516 16.7380693 18.001808 14.9157296 17.2468387 13.0158065 17.2482928L13.0158065 17.2482928zM13.0158065 29.5117072C10.5835573 29.5082805 8.49206275 27.7880259 8.01942841 25.4021374 7.54679406 23.0162488 8.82452361 20.6285654 11.0718007 19.6981927 13.3190777 18.76782 15.9106297 19.5536208 17.2627677 21.5753949 18.6149057 23.5971689 18.3514167 26.2923867 16.633318 28.0140092 15.6770084 28.9779905 14.3736551 29.5175788 13.0158065 29.5117072z"/>
    <path fill="#006FAD" d="M69.4779263,17.5087558 C69.074259,17.1191707 68.4345889,17.1191707 68.0309217,17.5087558 L62.6335945,22.8916129 L57.2217972,17.5087558 C56.980105,17.1818719 56.5693775,17.026827 56.1719662,17.1124566 C55.774555,17.1980861 55.464123,17.5085181 55.3784935,17.9059294 C55.2928639,18.3033407 55.4479088,18.7140681 55.7747926,18.9557604 L61.1576498,24.3313825 L55.7747926,29.7070046 C55.4600899,30.117322 55.4939705,30.6963726 55.8543779,31.0671889 C56.2109871,31.4366558 56.7856245,31.486087 57.2000922,31.1829493 L62.6118894,25.8217972 L68.0092166,31.2046544 C68.2681038,31.485012 68.6580768,31.6039399 69.0293548,31.5157604 C69.3804932,31.4177827 69.6548795,31.1433965 69.7528571,30.7922581 C69.8446977,30.4230644 69.7249976,30.0333432 69.4417512,29.7793548 L64.044424,24.3820276 L69.4417512,19.0064055 C69.6476599,18.8140233 69.7675143,18.5468913 69.774319,18.2651768 C69.7811237,17.9834623 69.6743065,17.7108551 69.4779263,17.5087558 L69.4779263,17.5087558 Z"/>
    <path fill="#0470AD" d="M39.5249309,10.8091244 C37.4285898,7.19971321 33.5699249,4.97855011 29.3958986,4.97855011 C25.2218724,4.97855011 21.3632074,7.19971321 19.2668664,10.8091244 C19.024429,11.2978769 19.2031807,11.8908946 19.6753379,12.1642488 C20.1474951,12.4376029 20.7507768,12.2973415 21.0539171,11.8437327 C22.780281,8.87324475 25.956567,7.04546927 29.3922811,7.04546927 C32.8279952,7.04546927 36.0042812,8.87324475 37.7306452,11.8437327 C37.9147423,12.1655893 38.2570006,12.3643199 38.627788,12.3646544 C38.8101404,12.3627324 38.9891526,12.3154931 39.1487097,12.2271889 C39.3858217,12.0898495 39.5617355,11.8673702 39.6406912,11.604977 C39.7085519,11.3348066 39.6669461,11.0487674 39.5249309,10.8091244 L39.5249309,10.8091244 Z"/>
    <polygon fill="#006FAD" points="4.312 4.232 4.312 8.082 3.769 8.082 3.769 4.232 2.344 4.232 2.344 3.748 5.737 3.748 5.737 4.232"/>
    <polygon fill="#006FAD" points="8.624 8.082 8.045 8.082 6.808 4.45 6.808 8.082 6.287 8.082 6.287 3.748 7.054 3.748 8.349 7.524 9.601 3.748 10.368 3.748 10.368 8.082 9.84 8.082 9.84 4.45"/>
    <path fill="#19BC9C" d="M91.8341475,37.8247019 C84.4650818,37.8247019 77.8217579,33.3852951 75.0024149,26.576886 C72.1830719,19.7684769 73.7430351,11.9321141 78.9547862,6.72243278 C84.1665373,1.51275144 92.0035191,-0.0440988154 98.8108078,2.77794839 C105.618096,5.5999956 110.054862,12.2450823 110.051937,19.6141475 C110.051937,24.4451402 108.132336,29.0781624 104.71563,32.4935116 C101.298924,35.9088608 96.6651398,37.8266198 91.8341475,37.8247019 Z"/>
    <path fill="#FFF" fill-rule="nonzero" d="M91.5230415,8.68202765 C87.3341576,8.68202765 83.9262673,12.2083426 83.9262673,16.5427485 C83.9262673,21.9218816 90.724636,29.8187634 91.0140826,30.1523097 C91.2859534,30.4656346 91.7606212,30.4650835 92.0320004,30.1523097 C92.321447,29.8187634 99.1198157,21.9218816 99.1198157,16.5427485 C99.1198157,12.2083426 95.7118844,8.68202765 91.5230415,8.68202765 Z M91.5230628,20.2580645 C89.3288519,20.2580645 87.5437788,18.4729679 87.5437788,16.2787805 C87.5437788,14.0845931 89.3288945,12.2995392 91.5230628,12.2995392 C93.7172311,12.2995392 95.5023041,14.0846357 95.5023041,16.2788232 C95.5023041,18.4730106 93.7172311,20.2580645 91.5230628,20.2580645 Z"/>
    <path fill="#FFF" fill-rule="nonzero" d="M91.3928111,2.55396313 C100.882819,2.55396313 108.575991,10.2471347 108.575991,19.7371429 C108.575991,29.227151 100.882819,36.9203226 91.3928111,36.9203226 C81.9028029,36.9203226 74.2096313,29.227151 74.2096313,19.7371429 C74.2096313,10.2471347 81.9028029,2.55396313 91.3928111,2.55396313 Z M91.3928111,1.05630074 C81.0735704,1.06829932 72.7171406,9.4420003 72.7264528,19.7612437 C72.7357806,30.0804871 81.1073225,38.43908 91.426568,38.4324299 C101.745813,38.4257718 110.106569,30.0563897 110.102582,19.7371429 C110.100664,14.7782508 108.127922,10.0234356 104.618743,6.51968418 C101.109563,3.01593274 96.3517002,1.05055354 91.3928111,1.05630074 L91.3928111,1.05630074 Z"/>
    <g fill="#006FAD" fill-rule="nonzero" transform="translate(0 43.41)">
      <path d="M7.42313364 1.40359447C7.56502871 1.5327242 7.64195216 1.7184015 7.63294931 1.91004608 7.64398137 2.09994548 7.56651512 2.28426172 7.42313364 2.40926267 7.27084804 2.54032851 7.0739273 2.60769613 6.87327189 2.59737327L4.87640553 2.59737327 4.87640553 8.92801843C4.88052085 9.12900308 4.7925886 9.32085526 4.63764977 9.44894009 4.47752951 9.59403459 4.26761613 9.67178029 4.0516129 9.66599078 3.83757793 9.67296452 3.62948481 9.5949296 3.47281106 9.44894009 3.33027006 9.31305996 3.24927689 9.1249468 3.24852535 8.92801843L3.24852535 2.59013825 1.2878341 2.59013825C1.08631191 2.59772338.889540853 2.52781788.73797235 2.39479263.596916967 2.26507438.520163696 2.07980787.528156682 1.88834101.524305599 1.70034144.603755582 1.52025481.745207373 1.39635945.894556815 1.26443467 1.08866661 1.19455514 1.2878341 1.20101382L6.83709677 1.20101382C7.05190868 1.18568983 7.263643 1.25888194 7.42313364 1.40359447L7.42313364 1.40359447zM13.1243318 3.27746544C13.2844348 3.387419 13.3814724 3.56801693 13.3847926 3.76221198 13.4015479 3.95679741 13.3389228 4.14989157 13.2111521 4.29760369 13.0853076 4.41983022 12.9162985 4.48743383 12.7408756 4.48571429 12.5945889 4.48209682 12.4500867 4.45270654 12.3140092 4.39889401L12.1476037 4.34824885C12.0538712 4.33722865 11.9591703 4.33722865 11.8654378 4.34824885 11.6410607 4.35058095 11.4222641 4.41848334 11.2359908 4.54359447 11.0223831 4.6912562 10.8524476 4.89367938 10.7440092 5.12963134 10.6071221 5.42128696 10.540231 5.74087793 10.5486636 6.06294931L10.5486636 8.95695853C10.5570299 9.15271615 10.4805605 9.342571 10.3388479 9.47788018 10.1982652 9.62143434 10.0043168 9.70006205 9.80345622 9.69493088 9.60010651 9.70210312 9.40313636 9.62331506 9.26082949 9.47788018 9.12360421 9.33957327 9.04795993 9.15176678 9.05101382 8.95695853L9.05101382 3.96479263C9.04795993 3.76998437 9.12360421 3.58217789 9.26082949 3.44387097 9.40437926 3.30108745 9.60119047 3.22498712 9.80345622 3.2340553 10.003243 3.22702346 10.1970352 3.30296905 10.3388479 3.44387097 10.4760732 3.58217789 10.5517175 3.76998437 10.5486636 3.96479263L10.5486636 4.12396313C10.7478905 3.80814911 11.034378 3.55684432 11.3734562 3.40046083 11.7159219 3.21019068 12.0966173 3.09894854 12.4876498 3.07488479 12.717346 3.0635505 12.9434183 3.13548258 13.1243318 3.27746544L13.1243318 3.27746544zM21.2275576 3.27746544C21.3711118 3.41804819 21.4497395 3.61199655 21.4446083 3.81285714L21.4446083 8.92078341C21.4457522 9.11664548 21.3674368 9.30460262 21.2275576 9.44170507 20.9306201 9.72745 20.4609468 9.72745 20.1640092 9.44170507 20.0232622 9.30756826 19.9424263 9.12242804 19.9397235 8.92801843 19.7037375 9.18137843 19.4180316 9.38334295 19.1004608 9.52129032 18.7495228 9.6854472 18.3664599 9.76947392 17.9790323 9.76728111 17.4280956 9.77666832 16.885929 9.62857653 16.4162673 9.34041475 15.9480363 9.05296696 15.5676531 8.64255348 15.3165438 8.15387097 15.0448992 7.63382584 14.9057345 7.05480115 14.9113825 6.4681106 14.9005118 5.86552661 15.0371193 5.26942113 15.3093088 4.73170507 15.5597665 4.2429654 15.9371214 3.83062397 16.4017972 3.53792627 16.8610158 3.25633369 17.3897133 3.10849884 17.9283871 3.11102719 18.3144594 3.10935191 18.6973845 3.18053671 19.0570507 3.32087558 19.3797857 3.4474311 19.6783592 3.62853304 19.9397235 3.85626728L19.9397235 3.85626728C19.9366017 3.65790262 20.0150719 3.46695849 20.1567742 3.3281106 20.4603421 3.05209891 20.9239896 3.05209891 21.2275576 3.3281106L21.2275576 3.27746544zM19.4911521 7.87170507C19.8409788 7.47272298 20.0247872 6.95495274 20.0048387 6.42470046 20.0218719 5.8948981 19.8384323 5.37816693 19.4911521 4.97769585 19.1609802 4.59321154 18.6735914 4.3801454 18.1671429 4.39889401 17.647902 4.38398552 17.1519698 4.61452697 16.8286636 5.02110599 16.4813833 5.42157707 16.2979438 5.93830824 16.314977 6.4681106 16.2922966 6.99749902 16.4735676 7.51541624 16.8214286 7.91511521 17.1611859 8.28436863 17.6400403 8.49448242 18.1418203 8.49448242 18.6436003 8.49448242 19.1224546 8.28436863 19.462212 7.91511521L19.4911521 7.87170507zM28.6796313 3.39322581C29.0459972 3.52300188 29.2994458 3.85903473 29.3235484 4.24695853 29.325919 4.41511378 29.2696373 4.57884258 29.1643779 4.71 29.0611937 4.84005733 28.9035132 4.91488878 28.7375115 4.91258065 28.6262364 4.91487849 28.5156004 4.89520987 28.4119355 4.85470046 28.326837 4.81621316 28.2466761 4.76763082 28.1731797 4.71L27.941659 4.55806452C27.8218025 4.51196542 27.698402 4.47567113 27.5726728 4.44953917 27.4414545 4.42412201 27.3083587 4.40960246 27.1747465 4.40612903 26.6354876 4.37980875 26.110124 4.5820737 25.7277419 4.96322581 25.3707144 5.35882522 25.1813409 5.87765677 25.1995853 6.41023041 25.1801967 6.9443037 25.3726333 7.46440266 25.734977 7.85723502 26.088614 8.23891068 26.5894911 8.44980629 27.1096313 8.43603687 27.4203623 8.45372031 27.7312622 8.40437111 28.0212442 8.29133641 28.0942344 8.25304732 28.1643563 8.20952338 28.2310599 8.16110599 28.306092 8.10779493 28.3860395 8.06176454 28.4698157 8.02364055 28.5576266 7.99021464 28.6507889 7.97305316 28.7447465 7.97299539 28.9314809 7.96341479 29.1133228 8.03457032 29.2439631 8.16834101 29.388152 8.31832761 29.452963 8.5276423 29.4187592 8.73286539 29.3845553 8.93808849 29.2553618 9.1150691 29.0703226 9.21018433 28.7895259 9.40011609 28.4752923 9.53513833 28.1442396 9.6081106 27.7450621 9.71199507 27.3339834 9.76307585 26.9215207 9.76004608 26.328299 9.7712567 25.7431606 9.62122122 25.2285253 9.3259447 24.7348213 9.04988957 24.330581 8.63811683 24.0636866 8.13940092 23.8037739 7.62108601 23.6722608 7.04788769 23.6802304 6.4681106 23.6676368 5.86276384 23.8122185 5.26449458 24.0998618 4.73170507 24.3666327 4.23104218 24.7707338 3.81690127 25.2647005 3.53792627 25.7786563 3.23777163 26.3625209 3.07808218 26.9576959 3.07488479 27.5482268 3.05133454 28.136553 3.16010073 28.6796313 3.39322581L28.6796313 3.39322581zM37.2748387 8.93525346C37.2728012 9.13238541 37.1825335 9.31823075 37.0288479 9.44170507 36.8850651 9.56942727 36.7002219 9.64131074 36.5079263 9.64428571 36.2987393 9.6479472 36.0982092 9.56087494 35.9580645 9.40552995L33.7079724 7.10479263 33.1002304 7.65465438 33.1002304 8.92078341C33.1013744 9.11664548 33.0230589 9.30460262 32.8831797 9.44170507 32.5853269 9.73212214 32.1102491 9.73212214 31.8123963 9.44170507 31.6706837 9.30639588 31.5942144 9.11654104 31.6025806 8.92078341L31.6025806 1.45423963C31.5942144 1.25848201 31.6706837 1.06862716 31.8123963.933317972 32.1102491.642900905 32.5853269.642900905 32.8831797.933317972 33.0230589 1.07042042 33.1013744 1.25837756 33.1002304 1.45423963L33.1002304 5.92548387 35.7699539 3.4221659C35.9156841 3.27659553 36.1138459 3.19576635 36.3198157 3.19788018 36.5068487 3.19870749 36.685098 3.27734687 36.8117972 3.41493088 36.9451867 3.53023445 37.0261153 3.69470236 37.0360829 3.87073733 37.0216652 4.08814091 36.9100406 4.28747055 36.732212 4.41336406L34.851106 6.0918894 37.0216129 8.38539171C37.1771568 8.5267102 37.2685633 8.72519291 37.2748387 8.93525346zM39.6189862 2.27903226C39.4898609 2.15864161 39.4254416 1.98417264 39.4453456 1.80875576L39.4453456 1.57723502C39.4265534 1.3990322 39.4969496 1.22304182 39.6334562 1.10695853 39.8156807 1.00289863 40.0246161.955070036 40.2339631.969493088 40.4458236.952244926 40.6578909 1.00021254 40.8417051 1.10695853 40.973492 1.22593796 41.0406734 1.40060958 41.0225806 1.57723502L41.0225806 1.80875576C41.0418656 1.98766012 40.9746777 2.16503624 40.8417051 2.28626728 40.6490692 2.38227918 40.4341713 2.42475899 40.2194931 2.40926267 40.0107836 2.42721062 39.8015107 2.38182613 39.6189862 2.27903226L39.6189862 2.27903226zM40.7693548 9.44170507C40.6287721 9.58525922 40.4348237 9.66388694 40.2339631 9.65875576 40.0306134 9.665928 39.8336433 9.58713994 39.6913364 9.44170507 39.5541111 9.30339815 39.4784668 9.11559166 39.4815207 8.92078341L39.4815207 3.92861751C39.4784668 3.73380926 39.5541111 3.54600277 39.6913364 3.40769585 39.8348862 3.26491234 40.0316974 3.188812 40.2339631 3.19788018 40.4337499 3.19084834 40.6275421 3.26679394 40.7693548 3.40769585 40.9065801 3.54600277 40.9822244 3.73380926 40.9791705 3.92861751L40.9791705 8.92078341C40.9875368 9.11654104 40.9110675 9.30639588 40.7693548 9.44170507zM48.8436406 3.80562212C49.1979744 4.41970677 49.3663742 5.12346714 49.3283871 5.83142857L49.3283871 8.92078341C49.331441 9.11559166 49.2557967 9.30339815 49.1185714 9.44170507 48.9762646 9.58713994 48.7792944 9.665928 48.5759447 9.65875576 48.3750841 9.66388694 48.1811358 9.58525922 48.040553 9.44170507 47.8988404 9.30639588 47.8223711 9.11654104 47.8307373 8.92078341L47.8307373 5.83142857C47.8502154 5.45964553 47.7486754 5.09156303 47.5413364 4.78235023 47.2920305 4.50732516 46.9265711 4.36759068 46.5573733 4.40612903 46.1384587 4.38064958 45.7267815 4.52395491 45.4142396 4.8040553 45.140358 5.07457709 44.9910159 5.44662216 45.0018433 5.83142857L45.0018433 8.92078341C45.0102096 9.11654104 44.9337403 9.30639588 44.7920276 9.44170507 44.4941749 9.73212214 44.019097 9.73212214 43.7212442 9.44170507 43.5813651 9.30460262 43.5030496 9.11664548 43.5041812 8.92078341L43.5041812 3.92861751C43.5041812 3.51505295 43.8394539 3.17979263 44.2530184 3.17979263 44.666583 3.17979263 45.0018433 3.51505295 45.0018433 3.92861751L45.0018433 4.13843318C45.2473569 3.84330441 45.5469406 3.59774407 45.8845161 3.41493088 46.247393 3.20617266 46.6596858 3.09872666 47.0782949 3.10382488 47.7481704 3.01943464 48.4145427 3.28434494 48.8436406 3.80562212L48.8436406 3.80562212zM58.0104147 3.27746544C58.1513167 3.41927817 58.2272291 3.61307038 58.2202304 3.81285714L58.2202304 9.18847926C58.2821286 10.02253 57.9305728 10.8338127 57.2796774 11.3589862 56.5830136 11.8575891 55.7410842 12.1119484 54.8848848 12.0824885 54.5395905 12.0702872 54.195928 12.0291445 53.8575115 11.9594931 53.5379925 11.9136037 53.2248226 11.8310628 52.9241935 11.7135023 52.5190323 11.5495084 52.3164516 11.308341 52.3164516 10.99 52.3039566 10.9254842 52.3039566 10.8591702 52.3164516 10.7946544 52.352545 10.6348222 52.4418242 10.4919754 52.5696774 10.3894931 52.682894 10.2998739 52.8232112 10.2514007 52.9676037 10.2520276 53.0440976 10.2375433 53.1226305 10.2375433 53.1991244 10.2520276L53.8213364 10.4763134C54.149132 10.6049752 54.4967147 10.6759604 54.8487097 10.686129 55.3354568 10.7194076 55.8199866 10.5951042 56.2305991 10.3316129 56.5369398 10.0872016 56.7066438 9.71008151 56.6864055 9.31870968L56.6864055 8.73990783C56.4645299 9.02706409 56.1799357 9.25968899 55.8543779 9.42 55.4870973 9.61605763 55.0769305 9.71797786 54.6605991 9.71663594 53.5228812 9.73197593 52.4723775 9.10893788 51.9402304 8.10322581 51.6843511 7.59638167 51.5529035 7.03586957 51.5567742 6.4681106 51.5484351 5.86495375 51.6875178 5.26888533 51.9619355 4.73170507 52.220412 4.24166777 52.6050605 3.82954435 53.076129 3.53792627 53.5499044 3.25315684 54.0933862 3.10538988 54.646129 3.11105991 55.055093 3.1106827 55.4594932 3.19698762 55.8326728 3.36428571 56.1637026 3.51061605 56.4634008 3.71942218 56.7153456 3.97926267L56.7153456 3.84903226C56.7122238 3.6506676 56.790694 3.45972347 56.9323963 3.32087558 57.2359643 3.04486388 57.6996118 3.04486388 58.0031797 3.32087558L58.0104147 3.27746544zM56.2523041 7.87170507C56.6146478 7.4788727 56.8070844 6.95877375 56.7876959 6.42470046 56.8039714 5.89113114 56.6119564 5.37217189 56.2523041 4.97769585 55.9043338 4.59230049 55.4037992 4.38043398 54.8848848 4.39889401 54.3677162 4.3785425 53.8686242 4.59092207 53.5247005 4.97769585 53.1615933 5.38653322 52.9744063 5.92209587 53.0037788 6.4681106 52.9827965 6.99981055 53.1696306 7.51879403 53.5247005 7.91511521 53.8710195 8.29854239 54.3684669 8.51022214 54.8848848 8.49391705 55.4101792 8.4984737 55.9106562 8.27074344 56.2523041 7.87170507L56.2523041 7.87170507z"/>
      <path d="M1.83769585 8.9497235C1.35761052 8.79758057.912497469 8.55166176.528156682 8.2262212.325150568 8.07243967.200644195 7.83667228.188110599 7.58230415.189802715 7.39545641.268297186 7.21753561.40516129 7.09032258.539921291 6.95665975.721809397 6.88130611.911612903 6.88050691 1.06567939 6.88205807 1.21522763 6.93275238 1.33847926 7.02520737 1.63032755 7.27009378 1.96025702 7.46560754 2.31520737 7.60400922 2.67462418 7.73309636 3.05485993 7.79442471 3.43663594 7.78488479 3.85898473 7.79884277 4.27701951 7.69621148 4.64488479 7.48824885 4.92990237 7.35377126 5.12253798 7.07857754 5.15133641 6.76474654 5.15563765 6.41160911 4.96323952 6.0853688 4.65211982 5.91824885 4.15673569 5.66057739 3.61629118 5.5009006 3.06041475 5.44797235 1.23718894 5.19474654.325576037 4.36995392.325576037 2.98806452.314564003 2.51350656.459426107 2.04842297.73797235 1.6640553 1.02776185 1.27863691 1.41833031.980703277 1.86663594.803087558 2.370426.60267849 2.90899873.504309041 3.45110599.513686636 3.94213896.513074042 4.43028195.588807943 4.8981106.73797235 5.31583864.867698874 5.70588878 1.0737631 6.04847926 1.34571429 6.26719942 1.48480539 6.40271058 1.72330502 6.41023041 1.98239631 6.41215363 2.16851236 6.33606291 2.34693198 6.20041475 2.47437788 6.06744318 2.60630184 5.88848988 2.6815141 5.70119816 2.68419355 5.5792469 2.68474533 5.46023724 2.64676352 5.36115207 2.5756682 5.0857196 2.37504606 4.7805618 2.21880526 4.45677419 2.11262673 4.12509771 1.97911454 3.77232966 1.9056212 3.41493088 1.89557604 2.99016162 1.87082056 2.56748426 1.97145803 2.199447 2.18497696 1.93630195 2.33170578 1.77097927 2.60724359 1.76534562 2.90847926 1.75158366 3.23363709 1.92234371 3.53876571 2.20668203 3.69709677 2.64520895 3.91732137 3.11694894 4.06397629 3.60304147 4.13119816 4.1908568 4.21744197 4.76641696 4.3728675 5.31774194 4.59423963 5.70934391 4.75246557 6.04627461 5.02150724 6.28723502 5.3683871 6.52198904 5.76081021 6.63527726 6.21396308 6.61281106 6.67069124 6.62216594 7.15183724 6.46640705 7.62166733 6.17147465 8.00193548 5.86108552 8.39295408 5.45482213 8.69702852 4.9921659 8.88460829 4.4866445 9.0892515 3.94581811 9.19250017 3.40046083 9.18847926 2.87066058 9.18581925 2.34412227 9.10537589 1.83769585 8.9497235L1.83769585 8.9497235zM14.448341 2.79995392C14.5873902 2.94001897 14.6631838 3.13080972 14.6581567 3.3281106L14.6581567 8.45774194C14.7359424 9.31425252 14.4126707 10.1584994 13.7827189 10.7440092 13.1114037 11.249241 12.2851601 11.505044 11.4458065 11.4675115 11.1550379 11.4643965 10.8648772 11.4402165 10.5776037 11.3951613 10.3305705 11.3652451 10.087804 11.3069811 9.85410138 11.2215207 9.44170507 11.0551152 9.23912442 10.8235945 9.23912442 10.4980184 9.23093823 10.4355821 9.23093823 10.3723442 9.23912442 10.3099078 9.27712227 10.1490701 9.36903887 10.0060888 9.49958525 9.90474654 9.61000455 9.8151307 9.74806929 9.76655236 9.8902765 9.76728111 9.9691497 9.75222536 10.0501591 9.75222536 10.1290323 9.76728111L10.4329032 9.88304147C10.5834734 9.94073886 10.7382827 9.98669787 10.8959447 10.0205069 11.0621847 10.0579838 11.2319872 10.0773898 11.4023963 10.0783871 11.8690219 10.1162864 12.3337405 9.98534361 12.7119355 9.70940092 13.0216473 9.36720554 13.1715442 8.90962574 13.1243318 8.45050691L13.1243318 8.32751152C12.6077486 8.88498796 11.8630554 9.17325631 11.1057604 9.10889401 10.7021794 9.11892143 10.3037996 9.01619455 9.95539171 8.81225806 9.62451957 8.61931459 9.35586675 8.33559712 9.18124424 7.99470046 8.99068363 7.6236251 8.89616054 7.21070845 8.90631336 6.79368664L8.90631336 3.3281106C8.90128621 3.13080972 8.9770798 2.94001897 9.11612903 2.79995392 9.25794176 2.659052 9.45173397 2.58310641 9.65152074 2.59013825 10.0511 2.59013825 10.375023 2.91406126 10.375023 3.31364055L10.375023 6.40299539C10.3393139 6.79781083 10.4615972 7.19067843 10.7150691 7.49548387 10.9927752 7.73560245 11.3546148 7.85534793 11.7207373 7.82829493 12.092971 7.85245588 12.4581274 7.7184776 12.7264055 7.45930876 12.9834496 7.16977949 13.1137451 6.78931659 13.0881567 6.40299539L13.0881567 3.3281106C13.0831295 3.13080972 13.1589231 2.94001897 13.2979724 2.79995392 13.4397851 2.659052 13.6335773 2.58310641 13.8333641 2.59013825 14.0599997 2.55891325 14.2880506 2.63671887 14.448341 2.79995392zM16.640553 7.68359447C16.6473011 7.46213168 16.7713079 7.2609651 16.966129 7.15543779 17.0740482 7.08583447 17.1994687 7.04820832 17.3278802 7.04691244 17.5172338 7.05342479 17.6964775 7.13395454 17.8270968 7.27119816 18.0521836 7.50208757 18.3168277 7.69076905 18.6084793 7.82829493 18.9200127 7.95739909 19.2553615 8.0190441 19.5924424 8.00917051 20.2435945 8.00917051 20.5691705 7.74870968 20.5691705 7.2856682 20.5718433 7.05765374 20.4420105 6.84879237 20.2363594 6.7502765 19.9050287 6.59399253 19.5582772 6.47275076 19.2017512 6.38852535 18.8006873 6.28662785 18.4067388 6.15853417 18.0224424 6.00506912 17.7182307 5.87257103 17.4484468 5.67208943 17.2338249 5.41903226 17.0037448 5.11653592 16.8883837 4.74225316 16.9082488 4.36271889 16.8984483 3.99552548 17.0189077 3.63671031 17.2482949 3.34981567 17.488648 3.05679155 17.799981 2.83014117 18.1526728 2.69142857 18.5250899 2.53132139 18.9266153 2.45003097 19.3319816 2.45261043 19.766569 2.45628925 20.1972988 2.53460377 20.6053456 2.68419355 20.9949487 2.80983839 21.3410779 3.04309936 21.6037788 3.35705069 21.7075708 3.47775018 21.7641171 3.63196733 21.7629493 3.79115207 21.7641059 3.97360529 21.6780851 4.14564692 21.5314286 4.25419355 21.4145156 4.34125918 21.2720139 4.38706329 21.1262673 4.38442396 20.9607959 4.38938208 20.7998996 4.32969476 20.6776959 4.21801843 20.5213182 4.0318695 20.3229313 3.88555912 20.098894 3.79115207 19.8441864 3.68685707 19.5710101 3.63517506 19.2958065 3.63921659 18.6591244 3.63921659 18.3407834 3.85626728 18.3407834 4.29760369 18.3331813 4.46060306 18.3965056 4.61891386 18.514424 4.73170507 18.6537256 4.86136221 18.8189431 4.95999951 18.9991705 5.02110599L19.7226728 5.24539171C20.1075576 5.34010938 20.4848287 5.46344799 20.8513364 5.61437788 21.1371587 5.75036005 21.3855023 5.95400179 21.5748387 6.20764977 21.7954103 6.51149979 21.9052099 6.88175408 21.8859447 7.25672811 21.8910173 7.63344636 21.7629019 7.99985625 21.5241935 8.29133641 21.2775869 8.59370525 20.9556806 8.82577727 20.5908756 8.96419355 20.2207295 9.11349823 19.8251591 9.18966396 19.4260369 9.18847926 18.90336 9.19332514 18.3839904 9.1051303 17.892212 8.92801843 17.4283832 8.76057076 17.0235383 8.46133753 16.7273733 8.06705069 16.6551417 7.95304258 16.6244749 7.81759722 16.640553 7.68359447zM27.6811982 7.85C27.7810841 7.96920458 27.8327076 8.12149399 27.8258986 8.27686636 27.8122389 8.51368054 27.6708809 8.72433169 27.4569124 8.82672811 27.2047522 8.97487181 26.9173392 9.05228026 26.6248848 9.05101382 26.1675923 9.06550092 25.7149563 8.95546787 25.3153456 8.73267281 24.9153968 8.40149805 24.7155351 7.88678555 24.7871889 7.37248848L24.7871889 4.03714286 24.2156221 4.03714286C24.0293416 4.0439895 23.8485681 3.97325204 23.7164055 3.84179724 23.5833854 3.71914153 23.5095812 3.54517452 23.5138249 3.36428571 23.5097761 3.18553113 23.5837246 3.01386483 23.7164055 2.89400922 23.8527745 2.77000468 24.0313302 2.70272282 24.2156221 2.70589862L24.7871889 2.70589862 24.7871889 1.93175115C24.786045 1.73588908 24.8643605 1.54793194 25.0042396 1.41082949 25.1477894 1.26804598 25.3446006 1.19194564 25.5468664 1.20101382 25.7441672 1.19598667 25.934958 1.27178026 26.075023 1.41082949 26.2122483 1.54913641 26.2878926 1.7369429 26.2848387 1.93175115L26.2848387 2.70589862 27.1747465 2.70589862C27.3610271 2.69905197 27.5418006 2.76978943 27.6739631 2.90124424 27.8058266 3.02771724 27.879204 3.20329896 27.8765438 3.38599078 27.8775687 3.56204755 27.8039594 3.73029727 27.6739631 3.84903226 27.5375942 3.9730368 27.3590385 4.04031865 27.1747465 4.03714286L26.2848387 4.03714286 26.2848387 7.30737327C26.2724305 7.44483782 26.3229791 7.58052101 26.4223041 7.67635945 26.5294468 7.75944116 26.6632101 7.80059908 26.7985253 7.79211982 26.8921344 7.78860901 26.9847406 7.77154998 27.0734562 7.74147465 27.1658727 7.70566781 27.2637778 7.68608679 27.3628571 7.68359447 27.4882806 7.68954265 27.6047236 7.75041059 27.6811982 7.85L27.6811982 7.85zM35.9435945 6.13529954C35.7980409 6.25748661 35.6126284 6.32186597 35.4226728 6.31617512L31.2987097 6.31617512C31.3782929 6.76325092 31.6237786 7.16378033 31.9860369 7.43760369 32.332437 7.70342673 32.7576573 7.84601559 33.1942857 7.84276498 33.4652593 7.85376849 33.7362752 7.82202789 33.9973733 7.74870968 34.1564252 7.70486893 34.3095026 7.64169416 34.4531797 7.56059908L34.6847005 7.41589862C34.8169608 7.34793315 34.9629055 7.31082856 35.1115668 7.30737327 35.2789136 7.30708506 35.439799 7.37195821 35.5601382 7.48824885 35.6784973 7.5988834 35.7464616 7.75311004 35.7482488 7.91511521 35.7382752 8.16017931 35.6048252 8.38350381 35.3937327 8.5083871 35.1112982 8.71653488 34.7957615 8.8755262 34.4604147 8.97866359 34.07683 9.10160455 33.6766721 9.16504423 33.273871 9.16677419 32.6381181 9.18324643 32.0085001 9.03890715 31.4434101 8.74714286 30.9388305 8.48063069 30.5199492 8.07679905 30.2351613 7.58230415 29.9513059 7.07158128 29.8065994 6.49525005 29.81553 5.91101382 29.798832 5.27404049 29.9537679 4.64430124 30.2641014 4.08778802 30.5388683 3.58388213 30.9501067 3.16762863 31.4506452 2.88677419 31.9272869 2.60961807 32.4692858 2.464752 33.0206452 2.46711374 33.569171 2.46632417 34.1073383 2.61651041 34.5761751 2.90124424 35.0600478 3.18607904 35.463414 3.58944528 35.7482488 4.07331797 36.0349042 4.55457995 36.1849818 5.10486464 36.1823843 5.66502304 36.1806491 5.85048418 36.0923136 6.02447834 35.9435945 6.13529954L35.9435945 6.13529954zM31.2987097 5.11516129L34.5689401 5.11516129 34.5689401 5.02110599C34.532494 4.67064855 34.3448834 4.35356024 34.0552535 4.15290323 33.7590259 3.9126245 33.387542 3.78452659 33.0061751 3.79115207 32.1700006 3.6887035 31.4076947 4.27981357 31.2987097 5.11516129L31.2987097 5.11516129zM47.8379724 3.19788018C48.1897868 3.81272796 48.3556619 4.51644065 48.3154839 5.22368664L48.3154839 8.31304147C48.320511 8.51034235 48.2447174 8.70113311 48.1056682 8.84119816 47.9597997 8.98036917 47.7645925 9.05584927 47.5630415 9.05101382 47.1634622 9.05101382 46.8395392 8.72709081 46.8395392 8.32751152L46.8395392 5.22368664C46.8581341 4.85500061 46.7648192 4.48930728 46.5718433 4.17460829 46.3381719 3.89934083 45.9828991 3.75831651 45.6240553 3.7983871 45.2192052 3.77437368 44.8228597 3.92136274 44.5315668 4.20354839 44.2689245 4.47688588 44.128008 4.8448347 44.1408756 5.22368664L44.1408756 8.31304147C44.1439974 8.51140613 44.0655272 8.70235027 43.9238249 8.84119816 43.6215957 9.12065098 43.1552706 9.12065098 42.8530415 8.84119816 42.7139922 8.70113311 42.6381987 8.51034235 42.6432258 8.31304147L42.6432258 5.22368664C42.663435 4.85385852 42.5672901 4.48698974 42.3682949 4.17460829 42.1384695 3.89835693 41.7846854 3.75684332 41.4277419 3.7983871 41.0228918 3.77437368 40.6265463 3.92136274 40.3352535 4.20354839 40.0726112 4.47688588 39.9316946 4.8448347 39.9445622 5.22368664L39.9445622 8.31304147C39.947684 8.51140613 39.8692138 8.70235027 39.7275115 8.84119816 39.4252824 9.12065098 38.9589573 9.12065098 38.6567281 8.84119816 38.5150258 8.70235027 38.4365556 8.51140613 38.4395877 8.31304147L38.4395877 3.3281106C38.4395877 2.91254814 38.7765574 2.5756682 39.1921198 2.5756682 39.6076823 2.5756682 39.9445622 2.91254814 39.9445622 3.3281106L39.9445622 3.5162212C40.1800173 3.22244703 40.4698801 2.97680059 40.7982949 2.79271889 41.1473101 2.58241113 41.5484778 2.47459733 41.9558986 2.4816129 42.8593263 2.38359654 43.704444 2.94295507 43.967235 3.81285714 44.1828065 3.44439465 44.4797755 3.13010249 44.8354378 2.89400922 45.2189939 2.6193196 45.6804885 2.47478558 46.152212 2.4816129 46.800486 2.4107689 47.4389694 2.68205585 47.8379724 3.19788018z" transform="translate(61.498 .724)"/>
    </g>
    <g fill-rule="nonzero">
      <use fill="#000" xlink:href="#tracking-system-logo-a"/>
      <use fill="#006FAD" xlink:href="#tracking-system-logo-a"/>
    </g>
  </g>
</svg>
