<svg xmlns="http://www.w3.org/2000/svg" width="24" height="25" viewBox="0 0 24 25">
  <path fill="#FFF" d="M23.4619638,19.7737953 L19.7555382,15.9037553 C19.0172868,15.1360964 17.7947283,15.1594199 17.0307585,15.9573129 L15.1634454,17.9064061 C15.0454713,17.8385233 14.9233603,17.7676171 14.7949747,17.6923917 C13.615786,17.0102523 12.0018653,16.0752979 10.3035494,14.3009147 C8.60020018,12.5227882 7.70384573,10.8352201 7.04847272,9.60332348 C6.97931553,9.47281284 6.91305425,9.34698129 6.84762037,9.22748451 L8.1008618,7.92101037 L8.71700206,7.27695151 C9.482144,6.47790677 9.50324281,5.20188271 8.76671525,4.43199231 L5.0602896,0.561520362 C4.32376204,-0.207290253 3.10065192,-0.183966785 2.33550997,0.615077956 L1.29091229,1.71192883 L1.31945773,1.74151508 C0.969189989,2.20812842 0.676495785,2.74629585 0.458681654,3.32664708 C0.257898257,3.87906774 0.132891287,4.40622131 0.0757314528,4.93445467 C-0.413678077,9.1703996 1.44039663,13.0417354 6.47211681,18.2950586 C13.4274826,25.5561438 19.0325938,25.0076103 19.2744027,24.9808315 C19.8010454,24.9151083 20.3057619,24.7837338 20.8186835,24.5757662 C21.3697346,24.3510259 21.8848626,24.0458772 22.3315229,23.6809801 L22.3543455,23.702144 L23.4125954,22.6202662 C24.1761515,21.8213654 24.1981466,20.5449095 23.4619638,19.7737953 Z"/>
</svg>
