<svg xmlns="http://www.w3.org/2000/svg" width="28" height="26" viewBox="0 0 28 26">
  <path fill="#FFF" d="M170.150513,36 L149.849487,36 C147.726929,36 146,37.742958 146,39.8852181 L146,52.4243389 C146,54.5624594 147.719409,56.3023126 149.835815,56.309557 L149.835815,62 L157.937598,56.3100744 L170.150513,56.3100744 C172.273071,56.3100744 174,54.5671165 174,52.4243389 L174,39.8852181 C174,37.742958 172.273071,36 170.150513,36 L170.150513,36 Z M166.505762,50.5720257 L153.494238,50.5720257 L153.494238,48.9161725 L166.505762,48.9161725 L166.505762,50.5720257 Z M166.505762,47.0395388 L153.494238,47.0395388 L153.494238,45.3836856 L166.505762,45.3836856 L166.505762,47.0395388 Z M166.505762,43.507052 L153.494238,43.507052 L153.494238,41.8511988 L166.505762,41.8511988 L166.505762,43.507052 Z" transform="translate(-146 -36)"/>
</svg>
