<svg xmlns="http://www.w3.org/2000/svg" width="37" height="37" viewBox="0 0 37 37">
  <g fill="none" fill-rule="evenodd">
    <circle cx="18.5" cy="18.5" r="18.5" fill="#E0FDE8" opacity=".902"/>
    <path fill="#4DCC81" fill-rule="nonzero" d="M18.4996873,8 C14.36456,8 11,11.3031767 11,15.3632717 C11,16.4223023 11.2207875,17.433437 11.6558995,18.368839 C13.5310298,22.3972081 17.1261762,26.6503193 18.1836213,27.8577452 C18.2628463,27.9480105 18.378348,28 18.4998958,28 C18.6214436,28 18.7369453,27.9480105 18.8161702,27.8577452 C19.8731983,26.650524 23.4683448,22.3976175 25.3441005,18.368839 C25.779421,17.433437 26,16.4223023 26,15.3632717 C25.999583,11.3031767 22.635023,8 18.4996873,8 Z M18.5,19.6666667 C16.2026027,19.6666667 14.3333333,17.7974474 14.3333333,15.5001115 C14.3333333,13.2025526 16.2026027,11.3333333 18.5,11.3333333 C20.7973973,11.3333333 22.6666667,13.2025526 22.6666667,15.5001115 C22.6668897,17.7974474 20.7976203,19.6666667 18.5,19.6666667 Z"/>
  </g>
</svg>
