<svg xmlns="http://www.w3.org/2000/svg" width="42" height="42" viewBox="0 0 42 42">
  <g fill="none" fill-rule="evenodd">
    <circle cx="21" cy="21" r="21" fill="#F5A622"/>
    <path fill="#FFF" fill-rule="nonzero" d="M30.7591143,27.451 L21.9446094,12.816 C21.6369985,12.305 21.0969259,12 20.49974,12 C19.902554,12 19.3624815,12.305 19.0558726,12.815 L10.2403657,27.451 C9.92774482,27.97 9.9197289,28.619 10.2183219,29.146 C10.5159129,29.673 11.0780292,30 11.6852351,30 L29.3152468,30 C29.9214507,30 30.484569,29.673 30.78216,29.146 C31.080753,28.619 31.0717351,27.97 30.7591143,27.451 Z M21.5017298,27 L19.4977501,27 L19.4977501,25 L21.5017298,25 L21.5017298,27 Z M21.5017298,23 L19.4977501,23 L19.4977501,18 L21.5017298,18 L21.5017298,23 Z"/>
  </g>
</svg>
