<svg xmlns="http://www.w3.org/2000/svg" width="25" height="25" viewBox="0 0 25 25">
  <path fill="#FFF" d="M24.4395456,19.7737953 L20.5786856,15.9037553 C19.8096738,15.1360964 18.5361753,15.1594199 17.7403735,15.9573129 L15.7952556,17.9064061 C15.672366,17.8385233 15.5451669,17.7676171 15.411432,17.6923917 C14.1831104,17.0102523 12.501943,16.0752979 10.732864,14.3009147 C8.95854185,12.5227882 8.0248393,10.8352201 7.34215908,9.60332348 C7.27012034,9.47281284 7.20109818,9.34698129 7.13293789,9.22748451 L8.4383977,7.92101037 L9.08021047,7.27695151 C9.87723334,6.47790677 9.89921126,5.20188271 9.13199505,4.43199231 L5.271135,0.561520362 C4.5039188,-0.207290253 3.22984575,-0.183966785 2.43282289,0.615077956 L1.3447003,1.71192883 L1.37443513,1.74151508 C1.0095729,2.20812842 0.70468311,2.74629585 0.47779339,3.32664708 C0.268644018,3.87906774 0.138428424,4.40622131 0.07888693,4.93445467 C-0.430914664,9.1703996 1.50041315,13.0417354 6.74178834,18.2950586 C13.986961,25.5561438 19.8256186,25.0076103 20.0775028,24.9808315 C20.6260889,24.9151083 21.1518353,24.7837338 21.6861286,24.5757662 C22.2601402,24.3510259 22.7967319,24.0458772 23.2620031,23.6809801 L23.2857766,23.702144 L24.3881202,22.6202662 C25.1834911,21.8213654 25.2064027,20.5449095 24.4395456,19.7737953 Z"/>
</svg>
