<svg xmlns="http://www.w3.org/2000/svg" width="37" height="37" viewBox="0 0 37 37">
  <g fill="none" fill-rule="evenodd">
    <circle cx="18.5" cy="18.5" r="18.5" fill="#E0F8FD"/>
    <path fill="#2884B9" fill-rule="nonzero" d="M13.75,10.2788462 L12.5625,9 C10.5267857,10.6442308 9.16964286,13.2019231 9,16.125 L10.6964286,16.125 C10.8660714,13.6586538 11.96875,11.5576923 13.75,10.2788462 Z M26.2727273,16.125 L28,16.125 C27.8272727,13.2019231 26.5318182,10.6442308 24.4590909,9 L23.25,10.2788462 C24.9772727,11.5576923 26.1,13.6586538 26.2727273,16.125 Z M24.6470588,16.9166667 C24.6470588,14.0294118 22.7889706,11.7009804 20.2230392,11.0490196 L20.2230392,10.3970588 C20.2230392,9.65196078 19.6036765,9 18.8958333,9 C18.1879902,9 17.5686275,9.65196078 17.5686275,10.3970588 L17.5686275,11.0490196 C15.0026961,11.7009804 13.1446078,14.0294118 13.1446078,16.9166667 L13.1446078,22.0392157 L11.375,23.9019608 L11.375,24.8333333 L26.4166667,24.8333333 L26.4166667,23.9019608 L24.6470588,22.0392157 L24.6470588,16.9166667 Z M18.8958333,27.2083333 C18.9947917,27.2083333 19.1927083,27.2083333 19.2916667,27.2083333 C19.984375,27.1291667 20.4791667,26.7333333 20.6770833,26.2583333 C20.7760417,26.099969 20.875,25.8625 20.875,25.625 L16.9166667,25.625 C16.9166667,26.4958333 17.8072917,27.2083333 18.8958333,27.2083333 Z"/>
  </g>
</svg>
