<svg xmlns="http://www.w3.org/2000/svg" width="10" height="14" viewBox="0 0 10 14">
  <path fill="#818181" d="M1.27192309 13.1494081C1.28667609 13.5057015 1.57661576 13.7868852 1.92921568 13.7868852L8.07078432 13.7868852C8.42338424 13.7868852 8.71332391 13.5057015 8.72807691 13.1494081L9.16666667 3.78688525.833333333 3.78688525 1.27192309 13.1494081zM6.38929425 6.11237106C6.38929425 5.96318737 6.50891837 5.84219 6.65651238 5.84219L7.08390137 5.84219C7.23139938 5.84219 7.3511195 5.96315501 7.3511195 6.11237106L7.3511195 11.4613994C7.3511195 11.6106155 7.23149538 11.7315805 7.08390137 11.7315805L6.65651238 11.7315805C6.50898237 11.7315805 6.38929425 11.6106802 6.38929425 11.4613994L6.38929425 6.11237106zM4.51911938 6.11237106C4.51911938 5.96318737 4.63874349 5.84219 4.7863055 5.84219L5.2136945 5.84219C5.3611925 5.84219 5.48088062 5.96315501 5.48088062 6.11237106L5.48088062 11.4613994C5.48088062 11.6106155 5.36128851 11.7315805 5.2136945 11.7315805L4.7863055 11.7315805C4.63877549 11.7315805 4.51911938 11.6106802 4.51911938 11.4613994L4.51911938 6.11237106 4.51911938 6.11237106zM2.6488805 6.11237106C2.6488805 5.96318737 2.76850462 5.84219 2.91606663 5.84219L3.34348762 5.84219C3.49101763 5.84219 3.61067375 5.96315501 3.61067375 6.11237106L3.61067375 11.4613994C3.61067375 11.6106155 3.49104963 11.7315805 3.34348762 11.7315805L2.91606663 11.7315805C2.76853662 11.7315805 2.6488805 11.6106802 2.6488805 11.4613994L2.6488805 6.11237106zM9.5762865 1.15997732L6.66826517 1.15997732 6.66826517.598073196C6.66826517.518275963 6.60497091.453551913 6.52686311.453551913L3.47313689.453551913C3.39506193.453551913 3.33176767.518275963 3.33176767.598073196L3.33176767 1.15994375.423713504 1.15994375C.189685697 1.15994375 0 1.35384733 0 1.59303761L0 2.95355191 10 2.95355191 10 1.59307118C10 1.3538809 9.8103143 1.15997732 9.5762865 1.15997732z"/>
</svg>
