<svg xmlns="http://www.w3.org/2000/svg" width="13" height="14" viewBox="0 0 13 14">
  <g fill="#727272">
    <path d="M4.68 7.56396987C4.68 7.40709249 4.5527766 7.28 4.39579934 7.28L3.40404676 7.28C3.24724905 7.28 3.12 7.40709249 3.12 7.56396987L3.12 8.55577358C3.12 8.7128562 3.24724905 8.84 3.40404676 8.84L4.39579934 8.84C4.5527766 8.84 4.68 8.7128562 4.68 8.55577358L4.68 7.56396987 4.68 7.56396987zM7.28 7.56396987C7.28 7.40709249 7.15273839 7.28 6.99605348 7.28L6.00407479 7.28C5.84726161 7.28 5.72 7.40709249 5.72 7.56396987L5.72 8.55577358C5.72 8.7128562 5.84726161 8.84 6.00407479 8.84L6.99605348 8.84C7.15273839 8.84 7.28 8.7128562 7.28 8.55577358L7.28 7.56396987zM9.88 7.56396987C9.88 7.40709249 9.75275095 7.28 9.59595324 7.28L8.60420066 7.28C8.4472234 7.28 8.32 7.40709249 8.32 7.56396987L8.32 8.55577358C8.32 8.7128562 8.4472234 8.84 8.60420066 8.84L9.59595324 8.84C9.75275095 8.84 9.88 8.7128562 9.88 8.55577358L9.88 7.56396987zM4.68 10.1641518C4.68 10.0070024 4.5527766 9.88 4.39579934 9.88L3.40404676 9.88C3.24724905 9.88 3.12 10.0070024 3.12 10.1641518L3.12 11.1558738C3.12 11.3128693 3.24724905 11.44 3.40404676 11.44L4.39579934 11.44C4.5527766 11.44 4.68 11.3128437 4.68 11.1558738L4.68 10.1641518 4.68 10.1641518zM7.28 10.1641518C7.28 10.0070024 7.15273839 9.88 6.99605348 9.88L6.00407479 9.88C5.84726161 9.88 5.72 10.0070024 5.72 10.1641518L5.72 11.1558738C5.72 11.3128693 5.84726161 11.44 6.00407479 11.44L6.99605348 11.44C7.15273839 11.44 7.28 11.3128437 7.28 11.1558738L7.28 10.1641518zM9.88 10.1641518C9.88 10.0070024 9.75275095 9.88 9.59608149 9.88L8.60420066 9.88C8.4472234 9.88 8.32 10.0070024 8.32 10.1641518L8.32 11.1558738C8.32 11.3128693 8.4472234 11.44 8.60420066 11.44L9.59608149 11.44C9.75275095 11.44 9.88 11.3128437 9.88 11.1558738L9.88 10.1641518 9.88 10.1641518z"/>
    <path d="M11.8428739,1.56584206 L11.8428739,3.19307732 C11.8428739,3.92857112 11.2531854,4.52126504 10.5263968,4.52126504 L9.69592525,4.52126504 C8.96908219,4.52126504 8.37157732,3.92857112 8.37157732,3.19307732 L8.37157732,1.56 L4.62842268,1.56 L4.62842268,3.19307732 C4.62842268,3.92857112 4.03094505,4.52126504 3.30421092,4.52126504 L2.47357593,4.52126504 C1.74681457,4.52126504 1.15715333,3.92857112 1.15715333,3.19307732 L1.15715333,1.56584206 C0.521955461,1.58521457 0,2.11703528 0,2.77071263 L0,12.3070828 C0,12.9730505 0.533475792,13.52 1.19165986,13.52 L11.8083401,13.52 C12.4655438,13.52 13,12.9719207 13,12.3070828 L13,2.77071263 C13,2.11703528 12.4780718,1.58521457 11.8428739,1.56584206 Z M11.457147,11.7132315 C11.457147,12.0010358 11.2265225,12.2345255 10.9419731,12.2345255 L2.03534033,12.2345255 C1.75079086,12.2345255 1.52016634,12.0010358 1.52016634,11.7132315 L1.52016634,6.78735203 C1.52016634,6.49943748 1.75076362,6.26594782 2.03534033,6.26594782 L10.9419458,6.26594782 C11.2264953,6.26594782 11.457147,6.49943748 11.457147,6.78735203 L11.457147,11.7132315 L11.457147,11.7132315 Z"/>
    <path d="M2.4884412 3.64L3.2315588 3.64C3.45711551 3.64 3.64 3.43237616 3.64 3.17592766L3.64.464240409C3.64.2077639 3.45711551 0 3.2315588 0L2.4884412 0C2.26285985 0 2.08.2077639 2.08.464240409L2.08 3.17592766C2.08 3.43237616 2.26285985 3.64 2.4884412 3.64zM9.76846172 3.64L10.5116615 3.64C10.7370953 3.64 10.92 3.43237616 10.92 3.17592766L10.92.464240409C10.9200246.2077639 10.7371199 0 10.5116615 0L9.76846172 0C9.54290471 0 9.36.2077639 9.36.464240409L9.36 3.17592766C9.36 3.43237616 9.54290471 3.64 9.76846172 3.64z"/>
  </g>
</svg>
