<svg xmlns="http://www.w3.org/2000/svg" width="17" height="24" viewBox="0 0 17 24">
  <path fill="#FFF" d="M8.5,0 C3.81307469,0 0,3.899161 0,8.69185434 C0,14.6397366 7.60666731,23.3715754 7.93052792,23.7403883 C8.2347231,24.0868419 8.76582698,24.0862325 9.06947208,23.7403883 C9.39333269,23.3715754 17,14.6397366 17,8.69185434 C17,3.899161 13.1868795,0 8.5,0 Z M8.5,13.064969 C6.14189142,13.064969 4.22348148,11.103201 4.22348148,8.69185434 C4.22348148,6.28050765 6.14193726,4.31878651 8.5,4.31878651 C10.8580627,4.31878651 12.7764727,6.28055453 12.7764727,8.69190122 C12.7764727,11.1032479 10.8580627,13.064969 8.5,13.064969 Z"/>
</svg>
