<svg xmlns="http://www.w3.org/2000/svg" width="42" height="42" viewBox="0 0 42 42">
  <g fill="none" fill-rule="evenodd">
    <circle cx="21" cy="21" r="21" fill="#E0F8FD"/>
    <path fill="#2884B9" fill-rule="nonzero" d="M28.2503662,12 L13.7496338,12 C12.2335205,12 11,13.2737001 11,14.8391978 L11,24.0024015 C11,25.5648741 12.2281494,26.8363054 13.7398682,26.8415994 L13.7398682,31 L19.5268555,26.8419775 L28.2503662,26.8419775 C29.7664795,26.8419775 31,25.5682774 31,24.0024015 L31,14.8391978 C31,13.2737001 29.7664795,12 28.2503662,12 L28.2503662,12 Z M26,23 L17,23 L17,22 L26,22 L26,23 Z M26,20 L17,20 L17,19 L26,19 L26,20 Z M26,17 L17,17 L17,16 L26,16 L26,17 Z"/>
  </g>
</svg>
