<svg xmlns="http://www.w3.org/2000/svg" width="10" height="13" viewBox="0 0 10 13">
  <path fill="#727272" d="M293.999792,172 C291.24304,172 289,174.147065 289,176.786127 C289,177.474496 289.147192,178.131734 289.437266,178.739745 C290.687353,181.358185 293.084117,184.122708 293.789081,184.907534 C293.841898,184.966207 293.918899,185 293.999931,185 C294.080962,185 294.157964,184.966207 294.21078,184.907534 C294.915466,184.122841 297.31223,181.358451 298.562734,178.739745 C298.852947,178.131734 299,177.474496 299,176.786127 C298.999722,174.147065 296.756682,172 293.999792,172 Z M294,179.583333 C292.468402,179.583333 291.222222,178.368341 291.222222,176.875072 C291.222222,175.381659 292.468402,174.166667 294,174.166667 C295.531598,174.166667 296.777778,175.381659 296.777778,176.875072 C296.777926,178.368341 295.531747,179.583333 294,179.583333 Z" transform="translate(-289 -172)"/>
</svg>
