<svg xmlns="http://www.w3.org/2000/svg" width="42" height="42" viewBox="0 0 42 42">
  <g fill="none" fill-rule="evenodd">
    <circle cx="21" cy="21" r="21" fill="#19BC9C"/>
    <path fill="#FFF" fill-rule="nonzero" d="M20.249656,10 C15.701016,10 12,13.6334944 12,18.0995988 C12,19.2645325 12.2428663,20.3767807 12.7214894,21.4057229 C14.7841328,25.8369289 18.7387938,30.5153512 19.9019834,31.8435197 C19.9891309,31.9428115 20.1161827,32 20.2498853,32 C20.3835879,32 20.5106398,31.9428115 20.5977873,31.8435197 C21.7605182,30.5155764 25.7151792,25.8373792 27.7785106,21.4057229 C28.2573631,20.3767807 28.5,19.2645325 28.5,18.0995988 C28.4995413,13.6334944 24.7985253,10 20.249656,10 Z M20.25,22.8333333 C17.7228629,22.8333333 15.6666667,20.7771921 15.6666667,18.2501226 C15.6666667,15.7228079 17.7228629,13.6666667 20.25,13.6666667 C22.7771371,13.6666667 24.8333333,15.7228079 24.8333333,18.2501226 C24.8335786,20.7771921 22.7773824,22.8333333 20.25,22.8333333 Z"/>
  </g>
</svg>
