<svg xmlns="http://www.w3.org/2000/svg" width="16" height="17" viewBox="0 0 16 17">
  <path fill="#6D6D6D" d="M15.7567305,15.0759981 L11.8124568,10.97889 C12.8265989,9.77483242 13.3822533,8.25988157 13.3822533,6.68275208 C13.3822533,2.9979407 10.3805557,0 6.69112664,0 C3.0016976,0 0,2.9979407 0,6.68275208 C0,10.3675635 3.0016976,13.3655042 6.69112664,13.3655042 C8.07618986,13.3655042 9.39608732,12.948268 10.5245604,12.1562166 L14.4987987,16.2844141 C14.6649132,16.4567128 14.8883386,16.5517241 15.1277646,16.5517241 C15.3543901,16.5517241 15.5693789,16.4654295 15.7325842,16.3085301 C16.0793592,15.9752641 16.0904141,15.4226296 15.7567305,15.0759981 Z M6.62068966,1.65517241 C9.35873428,1.65517241 11.5862069,3.88264503 11.5862069,6.62068966 C11.5862069,9.35873428 9.35873428,11.5862069 6.62068966,11.5862069 C3.88264503,11.5862069 1.65517241,9.35873428 1.65517241,6.62068966 C1.65517241,3.88264503 3.88264503,1.65517241 6.62068966,1.65517241 Z"/>
</svg>
